<svg width="311" height="298" viewBox="0 0 311 298" fill="none" xmlns="http://www.w3.org/2000/svg">
<path d="M201.468 283.962H192.795C194.349 288.841 197.461 292.187 202.673 293.46C202.32 293.813 201.848 294.498 201.587 294.946C196.612 293.531 193.548 290.396 191.757 285.682C190.813 289.218 188.245 292.635 181.669 294.946C181.502 294.546 181.031 293.884 180.702 293.578C187.678 291.128 189.799 287.521 190.413 283.962H181.855V282.336H190.576C190.623 281.841 190.623 281.345 190.623 280.874V276.513H181.126V274.888H202.103V276.513H192.296V280.874C192.296 281.345 192.296 281.841 192.249 282.336H201.465V283.962H201.468Z" fill="#6F49F6"/>
<path d="M204.749 274.131H224.573V294.946H222.947V293.792H206.307V294.946H204.753V274.131H204.749ZM206.307 292.306H222.947V275.641H206.307V292.306ZM215.262 288.58H221.366V289.971H208.095V288.58H213.775V284.243H209.157V282.9H213.775V279.198H208.472V277.83H220.847V279.198H215.262V282.9H220.26V284.243H215.262V288.58ZM219.34 288.156C218.845 287.403 217.807 286.222 216.914 285.397L217.952 284.83C218.872 285.631 219.931 286.741 220.45 287.494L219.34 288.156Z" fill="#6F49F6"/>
<path d="M231.702 274.745C231.631 275.003 231.396 275.146 230.925 275.122C230.1 278.963 229.676 283.185 229.676 285.73C229.676 287.498 229.747 289.289 229.981 290.396C230.429 289.242 231.444 286.765 231.773 285.94L232.764 286.978C231.797 289.361 231.091 290.704 230.762 291.763C230.643 292.163 230.572 292.54 230.572 292.869C230.572 293.127 230.619 293.365 230.691 293.599L229.018 293.904C228.264 291.665 227.979 288.93 227.979 285.794C227.979 282.706 228.475 278.393 229.228 274.314L231.702 274.745ZM246.717 291.977C245.869 292.024 244.996 292.048 244.124 292.048C242.452 292.048 240.87 291.953 239.74 291.79C236.843 291.366 235.499 289.764 235.499 287.878C235.499 286.252 236.395 284.885 237.715 283.327L239.245 283.986C238.067 285.211 237.243 286.344 237.243 287.688C237.243 290.423 241.25 290.423 243.7 290.423C244.691 290.423 245.75 290.375 246.741 290.304L246.717 291.977ZM235.804 277.572C238.845 277.501 242.947 277.219 246.082 276.676L246.225 278.325C243.303 278.821 238.563 279.126 235.855 279.198L235.804 277.572Z" fill="#6F49F6"/>
<path d="M258.213 276.985V278.305H248.783V276.985H258.213ZM267.195 282.665V286.744C268.634 287.474 269.954 288.231 270.849 288.865C270.191 289.971 270.096 290.138 269.977 290.28C269.272 289.737 268.305 289.126 267.195 288.488V294.922H265.617V287.64C264.25 286.934 262.787 286.273 261.467 285.753L262.268 284.552C263.33 284.953 264.484 285.448 265.614 285.967V282.665H261.135V283.395C261.135 286.741 260.805 291.386 258.376 294.685C258.162 294.332 257.599 293.789 257.175 293.575L257.198 293.528H251.304V294.634H249.889V286.595H257.243V293.477C259.363 290.484 259.577 286.524 259.577 283.341V275.254L260.897 275.679C263.632 274.997 266.625 274.101 268.321 273.205L269.855 274.477C269.784 274.549 269.689 274.572 269.574 274.572C269.502 274.572 269.455 274.572 269.384 274.549C267.382 275.444 264.104 276.364 261.135 277.022V281.172H270.751V282.659H267.195V282.665ZM257.317 280.188V281.485H249.917V280.188H257.317ZM249.917 284.691V283.395H257.317V284.691H249.917ZM257.317 273.85V275.146H250.035V273.85H257.317ZM255.811 292.187V287.946H251.308V292.187H255.811Z" fill="#6F49F6"/>
<path d="M280.632 286.249C281.433 285.848 282.21 285.706 282.967 285.706C284.168 285.706 285.04 286.626 285.04 288.112C285.04 288.726 284.969 289.456 284.969 290.022C284.969 292.428 286.384 292.428 288.409 292.428C289.448 292.428 290.625 292.357 291.473 292.214C291.473 293.276 291.545 293.887 291.545 293.887C290.625 293.982 289.519 294.03 288.481 294.03C287.514 294.03 286.641 293.982 286.031 293.887C284.334 293.629 283.367 292.377 283.343 290.989C283.343 290.446 283.391 289.388 283.391 288.678C283.391 287.688 283.014 287.124 282.19 287.124C281.06 287.124 279.315 287.783 277.972 289.079C276.604 290.423 274.036 293.015 273.235 293.959C273.235 293.959 272.977 293.629 271.962 292.71C274.202 290.423 281.603 283.236 284.008 280.901C282.288 281.067 276.937 281.373 274.249 281.515C274.178 281.658 274.059 281.749 273.873 281.773L273.73 279.886C277.028 279.791 283.228 279.486 285.61 279.272L285.963 279.058L287.33 280.307C287.188 280.426 287.025 280.473 286.764 280.497C285.277 281.888 282.38 284.552 280.635 286.225V286.249H280.632ZM286.55 276.819C284.029 276.089 279.597 275.38 276.462 275.241L276.815 273.663C280.069 273.805 284.31 274.44 286.998 275.217L286.55 276.819Z" fill="#6F49F6"/>
<path d="M298.962 283.348C300.516 282.547 302.946 281.98 304.809 281.98C308.555 281.98 310.913 284.172 310.913 287.637C310.913 291.902 307.167 294.261 302.427 294.261C299.363 294.261 297.266 293.036 297.266 290.959C297.266 289.215 298.986 287.8 301.131 287.8C303.794 287.8 305.586 289.92 305.939 292.065C307.825 291.359 309.193 289.849 309.193 287.657C309.193 285.112 307.306 283.483 304.337 283.483C300.801 283.483 297.337 285.061 295.779 286.571C295.074 287.233 294.154 288.22 293.516 288.953L292.315 287.752C294.436 285.536 301.178 279.103 304.385 276.106C303.017 276.296 298.304 276.483 295.617 276.578C295.545 276.744 295.311 276.883 295.121 276.931L294.931 274.929C298.114 274.905 304.195 274.671 305.915 274.41L306.268 274.243L307.517 275.777C307.398 275.872 307.188 275.967 306.95 275.991C305.277 277.358 300.798 281.552 298.959 283.32V283.348H298.962ZM302.213 292.778C302.919 292.778 303.747 292.683 304.358 292.544C304.1 290.728 302.756 289.198 301.012 289.198C299.787 289.198 298.701 289.856 298.701 290.942C298.701 292.377 300.659 292.778 302.213 292.778Z" fill="#6F49F6"/>
<path d="M5.79076 281.325H4.34863V282.842H5.79076V281.325Z" fill="#6F49F6"/>
<path d="M8.75643 281.325H7.32788V282.842H8.75643V281.325Z" fill="#6F49F6"/>
<path d="M24.1956 279.774H22.7535V281.291H24.1956V279.774Z" fill="#6F49F6"/>
<path d="M27.1613 279.774H25.7328V281.291H27.1613V279.774Z" fill="#6F49F6"/>
<path d="M25.6683 277.341H24.2261V278.858H25.6683V277.341Z" fill="#6F49F6"/>
<path d="M46.7164 293.019H44.9451V294.895H46.7164V293.019Z" fill="#6F49F6"/>
<path d="M38.5524 289.479L39.4346 289.286C40.2897 289.096 40.9853 288.723 41.5045 288.166C42.0202 287.616 42.2815 287.029 42.2815 286.422C42.2815 285.485 41.9795 284.634 41.3857 283.89C40.7953 283.154 40.1709 282.781 39.5262 282.781C38.9053 282.781 38.135 283.368 37.2426 284.532C36.34 285.706 35.7054 287.335 35.3627 289.374L35.3492 289.452L35.2677 289.456C34.8436 289.473 34.5008 289.479 34.2464 289.479H33.7917C32.6108 289.479 32.0102 288.543 32.0102 286.69V283.493H30.2797V286.69C30.2797 288.539 29.6587 289.479 28.4338 289.479H28.2573C26.9713 289.479 26.3232 288.543 26.3232 286.69V284.97H24.596V286.734C24.596 287.725 24.4773 288.41 24.2329 288.828C23.9818 289.259 23.5679 289.476 23.0012 289.476C22.4176 289.476 22.0036 289.252 21.7695 288.807C21.5455 288.383 21.4335 287.701 21.4335 286.782V284.97H19.703V287.002C19.703 288.645 19.1058 289.476 17.9215 289.476H16.3403C15.1595 289.476 14.5589 288.675 14.5589 287.094C14.5589 286.649 14.5385 286.249 14.5012 285.899H12.7808C12.8113 286.096 12.8283 286.337 12.8283 286.615C12.8283 287.817 12.2481 288.807 11.1079 289.557C9.97799 290.297 8.5189 290.674 6.76461 290.674C3.48335 290.674 1.81728 289.693 1.81728 287.755C1.81728 287.08 1.91568 286.446 2.1091 285.865L0.480347 285.438C0.219068 286.12 0.086731 286.907 0.086731 287.779C0.086731 289.347 0.666975 290.575 1.8071 291.434C2.9574 292.299 4.62348 292.737 6.76121 292.737C9.84566 292.737 12.0546 291.763 13.3203 289.846L13.4153 289.703L13.49 289.856C14.0533 290.996 15.0135 291.549 16.4217 291.549H17.9589C19.0956 291.549 19.9711 291.2 20.5615 290.511L20.6429 290.416L20.7176 290.518C21.2062 291.2 21.9866 291.546 23.0385 291.546C23.3439 291.546 23.7511 291.451 24.2533 291.261C24.7487 291.074 25.122 290.823 25.3595 290.514L25.4341 290.416L25.5122 290.511C26.0789 291.196 27.0018 291.546 28.2471 291.546H28.4236C29.5399 291.546 30.4256 291.196 31.0499 290.507L31.1246 290.426L31.1958 290.511C31.7863 291.2 32.6821 291.549 33.8663 291.549H34.2972C34.4941 291.549 34.7587 291.532 35.0845 291.502L35.1931 291.492V291.6C35.1931 293.195 35.6817 294.671 36.642 295.991C37.5955 297.301 38.5388 297.966 39.4448 297.966C40.215 297.966 40.8462 297.681 41.3178 297.121C41.7929 296.554 42.0372 295.788 42.0372 294.837C42.0372 294.281 41.7827 293.677 41.2839 293.046C40.7817 292.411 40.1404 291.973 39.3735 291.739L38.7424 291.546H43.7644C44.9825 291.546 45.8953 291.203 46.4789 290.531C47.066 289.853 47.3612 288.682 47.3612 287.043V284.963H45.634V286.995C45.634 288.638 45.0402 289.469 43.8628 289.469H38.5524V289.479ZM37.134 289.249C37.3478 287.952 37.7108 286.89 38.2097 286.089C38.7288 285.258 39.1564 284.854 39.5228 284.854C39.7773 284.854 40.0318 285.01 40.3067 285.333C40.5713 285.645 40.7071 286.011 40.7071 286.422C40.7071 287.033 40.361 287.637 39.6755 288.214C39.0037 288.784 38.1859 289.171 37.2528 289.361L37.1136 289.388L37.134 289.249ZM39.4957 292.927C40.154 293.623 40.4865 294.267 40.4865 294.841C40.4865 295.53 40.1302 295.893 39.4584 295.893C38.8849 295.893 38.3318 295.431 37.7617 294.481C37.212 293.562 36.9338 292.645 36.9338 291.763V291.471L37.0559 291.505C38.023 291.76 38.8442 292.238 39.4957 292.927Z" fill="#6F49F6"/>
<path d="M57.4493 284.83C58.1618 286.388 58.5215 287.823 58.5215 289.099C58.5215 292.835 56.5908 294.732 52.7768 294.732C52.2678 294.732 51.6944 294.675 51.0632 294.563L50.6934 296.412C51.5654 296.51 52.261 296.561 52.7564 296.561C55.057 296.561 56.903 295.906 58.2365 294.613C59.57 293.324 60.2487 291.468 60.2487 289.099C60.2487 287.606 60.0179 286.167 59.5565 284.83H57.4493Z" fill="#6F49F6"/>
<path d="M59.0203 280.545H57.249V282.421H59.0203V280.545Z" fill="#6F49F6"/>
<path d="M63.9168 274.674H62.1862V291.553H63.9168V274.674Z" fill="#6F49F6"/>
<path d="M96.865 279.601C95.2736 278.278 93.2376 277.609 90.8081 277.609C89.5797 277.609 88.4803 277.704 87.5336 277.891L88.0901 279.971C89.159 279.771 90.0717 279.673 90.8081 279.673C92.8135 279.673 94.449 280.137 95.6706 281.054C96.9023 281.977 97.5267 283.208 97.5267 284.708C97.5267 285.848 97.167 286.792 96.451 287.515C95.7384 288.237 94.7306 288.628 93.4582 288.675L93.2274 288.685L93.3801 288.512C94.0316 287.779 94.3608 286.985 94.3608 286.144C94.3608 285.082 94.0113 284.176 93.3191 283.456C92.6302 282.737 91.731 282.374 90.652 282.374C89.5628 282.374 88.6636 282.744 87.9747 283.473C87.2825 284.203 86.933 285.078 86.933 286.072C86.933 287.223 87.4556 288.224 88.4905 289.048L88.6602 289.184L88.4464 289.225C87.5166 289.394 86.4783 289.483 85.3619 289.483H85.1855C84.9548 289.483 84.5917 289.374 84.0522 289.15C83.3871 288.885 82.9086 288.75 82.6304 288.75C81.9653 288.75 81.3953 288.974 80.927 289.411C80.4621 289.849 80.228 290.358 80.228 290.925C80.228 291.268 80.4994 291.861 81.0322 292.689C81.4937 293.412 81.5446 293.629 81.5446 293.731C81.5446 294.311 80.9372 294.814 79.6885 295.268C78.4873 295.706 76.9535 295.927 75.128 295.927C73.2244 295.927 71.8569 295.713 71.0629 295.292C70.2485 294.861 69.8379 294.189 69.8379 293.3C69.8379 292.659 69.9499 291.929 70.1705 291.132L68.596 290.704C68.2737 291.709 68.1108 292.588 68.1108 293.321C68.1108 294.824 68.7419 295.988 69.9872 296.785C71.2461 297.589 72.9665 298 75.1076 298C77.4116 298 79.3729 297.562 80.944 296.7C82.4913 295.849 83.2785 294.946 83.2785 294.02C83.2785 293.83 83.1462 293.405 82.5184 292.455C82.023 291.722 81.9585 291.498 81.9585 291.386C81.9585 291.234 82.023 291.098 82.152 290.986C82.2775 290.877 82.437 290.823 82.6304 290.823C82.8747 290.823 83.2581 290.935 83.7977 291.169C84.4017 291.427 84.8597 291.556 85.1651 291.556H85.3212C87.2757 291.556 89.1759 291.115 90.9676 290.25L91.0015 290.233L91.0354 290.243C91.7378 290.419 92.4708 290.507 93.2139 290.507C94.9139 290.507 96.3628 289.944 97.5165 288.835C98.6702 287.725 99.2572 286.324 99.2572 284.668C99.2538 282.621 98.4496 280.918 96.865 279.601ZM90.9879 288.37L90.9506 288.39L90.9099 288.376C89.4236 287.905 88.6703 287.131 88.6703 286.069C88.6703 285.621 88.8536 285.234 89.2133 284.919C89.5696 284.606 90.0548 284.447 90.652 284.447C91.2119 284.447 91.6869 284.61 92.0602 284.932C92.4402 285.258 92.6302 285.665 92.6302 286.144C92.6302 287.006 92.0771 287.755 90.9879 288.37Z" fill="#6F49F6"/>
<path d="M102.874 274.674H101.144V291.553H102.874V274.674Z" fill="#6F49F6"/>
<path d="M122.871 277.202H121.099V279.079H122.871V277.202Z" fill="#6F49F6"/>
<path d="M119.437 281.464C118.409 281.115 117.486 280.938 116.695 280.938C116.101 280.938 115.531 281.027 114.992 281.2L115.328 283.225C115.932 283.086 116.471 283.015 116.929 283.015C118.935 283.015 120.611 283.846 123.658 285.485L123.95 285.641L123.617 285.669C122.888 285.73 122.29 286.344 120.085 287.498C118.426 288.36 117.235 288.909 116.546 289.133C115.85 289.361 115.26 289.476 114.795 289.476H112.121L112.118 289.381C112.06 287.358 111.612 285.723 110.791 284.511C109.976 283.314 109.074 282.71 108.11 282.71C107.17 282.71 106.329 283.137 105.606 283.979C104.88 284.827 104.513 285.889 104.513 287.141C104.513 288.526 104.965 289.618 105.857 290.385C106.753 291.159 107.781 291.549 108.908 291.549H109.976L109.929 291.682C109.583 292.669 108.843 293.392 107.737 293.836C106.644 294.274 105.032 294.495 102.942 294.495C102.433 294.495 101.86 294.434 101.239 294.315L100.866 296.409C101.738 296.507 102.43 296.558 102.919 296.558C105.375 296.558 107.398 296.137 108.925 295.306C110.441 294.481 111.432 293.243 111.863 291.621L111.883 291.546H114.727C115.26 291.546 115.904 291.424 116.644 291.179C117.387 290.935 118.643 290.328 120.38 289.381C122.236 288.366 123.607 287.715 124.449 287.447C125.253 287.192 125.965 287.053 126.573 287.039V285.251C126.484 285.224 126.152 285.051 124.296 283.948C122.1 282.652 120.468 281.814 119.437 281.464ZM110.387 289.479H108.796C108.08 289.479 107.472 289.252 106.987 288.807C106.498 288.36 106.254 287.8 106.254 287.145C106.254 286.493 106.441 285.933 106.811 285.475C107.187 285.01 107.625 284.776 108.11 284.776C108.738 284.776 109.284 285.248 109.732 286.184C110.17 287.094 110.39 288.169 110.39 289.384V289.479H110.387Z" fill="#6F49F6"/>
<path d="M136.457 283.188C135.541 283.188 134.767 283.565 134.16 284.311C133.542 285.068 132.986 286.368 132.514 288.169C132.321 288.913 131.954 289.401 131.415 289.622C130.665 289.924 130.142 290.324 129.864 290.813C129.582 291.308 129.44 292.15 129.44 293.314V297.874H131.167V293.653C131.167 293.27 131.191 292.934 131.235 292.652C131.282 292.364 131.364 292.123 131.483 291.933C131.605 291.736 131.829 291.57 132.148 291.441C132.742 291.2 133.162 290.935 133.393 290.653L133.461 290.572L133.539 290.643C134.187 291.244 134.968 291.549 135.853 291.549C136.997 291.549 137.96 291.183 138.724 290.463C139.484 289.744 139.871 288.689 139.871 287.325C139.871 286.195 139.538 285.211 138.88 284.399C138.225 283.599 137.411 283.188 136.457 283.188ZM137.529 288.885C137.126 289.279 136.596 289.479 135.962 289.479C135.405 289.479 134.811 289.249 134.197 288.797L134.146 288.76L134.163 288.695C134.727 286.381 135.48 285.255 136.461 285.255C136.939 285.255 137.346 285.458 137.665 285.855C137.981 286.249 138.14 286.744 138.14 287.331C138.14 287.969 137.933 288.492 137.529 288.885Z" fill="#6F49F6"/>
<path d="M155.273 291.587H153.501V293.463H155.273V291.587Z" fill="#6F49F6"/>
<path d="M151.672 281.464C150.644 281.115 149.721 280.938 148.931 280.938C148.337 280.938 147.767 281.027 147.227 281.2L147.563 283.225C148.167 283.086 148.707 283.015 149.165 283.015C151.17 283.015 152.843 283.846 155.894 285.485L156.185 285.641L155.853 285.669C155.123 285.73 154.526 286.344 152.321 287.498C150.665 288.36 149.474 288.909 148.781 289.133C148.086 289.361 147.495 289.476 147.03 289.476H145.259C144.085 289.476 143.488 288.645 143.488 287.002V274.674H141.757V287.05C141.757 288.611 142.039 289.768 142.596 290.484C143.145 291.193 144.075 291.553 145.358 291.553H146.963C147.495 291.553 148.14 291.43 148.88 291.186C149.623 290.942 150.878 290.334 152.616 289.388C154.472 288.373 155.843 287.722 156.684 287.453C157.488 287.199 158.201 287.06 158.808 287.046V285.258C158.72 285.231 158.388 285.058 156.532 283.955C154.339 282.652 152.704 281.814 151.672 281.464Z" fill="#6F49F6"/>
<path d="M173.026 273.31H171.255V275.187H173.026V273.31Z" fill="#6F49F6"/>
<path d="M175.374 280.287C174.553 279.089 173.63 278.485 172.626 278.485C171.767 278.485 170.977 278.895 170.271 279.71C169.565 280.528 169.205 281.512 169.205 282.638C169.205 284.002 169.592 285.058 170.359 285.774C171.126 286.493 172.093 286.86 173.236 286.86C173.491 286.86 173.895 286.771 174.434 286.598L174.665 286.524L174.553 286.737C174.041 287.708 173.233 288.417 172.151 288.845C171.078 289.266 169.528 289.479 167.549 289.479H167.461C166.345 289.479 165.731 288.97 165.636 287.969C165.578 287.386 165.469 286.741 165.313 286.055H163.403C163.766 287.189 163.953 288.214 163.953 289.103C163.953 292.839 162.022 294.736 158.211 294.736C157.702 294.736 157.125 294.678 156.498 294.566L156.128 296.415C157 296.514 157.695 296.565 158.191 296.565C160.132 296.565 161.771 296.083 163.064 295.133C164.353 294.186 165.167 292.818 165.486 291.064L165.517 290.891L165.649 291.01C166.043 291.366 166.674 291.549 167.522 291.556H167.597C170.42 291.549 172.653 290.949 174.237 289.764C175.822 288.583 176.626 286.914 176.626 284.807C176.626 283.015 176.205 281.495 175.374 280.287ZM174.852 284.491L174.78 284.511C174.176 284.691 173.62 284.783 173.124 284.783C172.49 284.783 171.957 284.586 171.55 284.196C171.139 283.806 170.932 283.28 170.932 282.635C170.932 282.041 171.095 281.539 171.414 281.152C171.74 280.758 172.147 280.558 172.626 280.558C173.209 280.558 173.732 280.976 174.183 281.797C174.624 282.601 174.848 283.483 174.848 284.42V284.491H174.852Z" fill="#6F49F6"/>
<g clip-path="url(#clip0)">
<path d="M27.2689 70.8884L50.7294 0L59.1633 0.055209L83.1008 71.2565L74.0752 71.1976L67.283 49.6366L42.2067 49.471L35.5845 70.9436L27.2689 70.8884ZM44.562 41.83L64.8648 41.9625L58.801 22.2456C56.9301 16.1946 55.5546 11.2737 54.6894 7.49003C53.8907 12.0393 52.7704 16.5553 51.3358 21.0346L44.562 41.83Z" fill="#6F49F6"/>
<path d="M88.1256 91.0139L88.5989 19.8274L95.3431 19.8716L95.2987 26.5592C96.9663 23.7914 98.8113 21.8002 100.834 20.5856C102.856 19.371 105.171 18.7711 107.778 18.7895C111.176 18.8116 114.241 19.82 116.966 21.8076C119.691 23.7988 121.876 26.8058 123.514 30.8398C125.152 34.8737 125.954 39.7174 125.918 45.3708C125.858 54.1269 123.939 60.8588 120.157 65.5663C116.371 70.2737 111.952 72.6109 106.894 72.5778C104.646 72.5631 102.549 71.9815 100.608 70.8406C98.6671 69.6959 96.9885 68.0875 95.5834 66.0116L95.417 91.0655L88.1256 91.0139ZM95.0769 45.8934C95.0325 52.548 96.138 57.4579 98.3935 60.6232C100.649 63.7885 103.389 65.3822 106.62 65.4043C109.719 65.4264 112.451 63.8106 114.814 60.5643C117.177 57.318 118.382 52.2866 118.426 45.4702C118.471 38.7494 117.365 33.7658 115.113 30.5232C112.862 27.2806 110.1 25.6428 106.839 25.6207C103.903 25.6023 101.218 27.3211 98.7891 30.7772C96.3599 34.2296 95.1212 39.272 95.0769 45.8934Z" fill="#6F49F6"/>
<path d="M133.139 91.3084L133.612 20.1219L140.356 20.166L140.312 26.8537C141.979 24.0859 143.824 22.0947 145.847 20.8801C147.869 19.6655 150.184 19.0655 152.791 19.0839C156.189 19.106 159.254 20.1145 161.979 22.102C164.704 24.0896 166.889 27.1003 168.527 31.1342C170.165 35.1682 170.968 40.0118 170.931 45.6652C170.871 54.4214 168.952 61.1532 165.17 65.857C161.384 70.5645 156.965 72.9017 151.907 72.8686C149.659 72.8539 147.563 72.2723 145.621 71.1313C143.68 69.9867 142.002 68.3782 140.596 66.3024L140.43 91.3562L133.139 91.3084ZM140.09 46.1879C140.046 52.8424 141.151 57.7523 143.407 60.9177C145.662 64.083 148.402 65.6767 151.633 65.6988C154.732 65.7208 157.464 64.1051 159.827 60.8588C162.19 57.6125 163.395 52.5811 163.439 45.7646C163.484 39.0438 162.378 34.064 160.127 30.8177C157.871 27.5714 155.113 25.9372 151.852 25.9151C148.916 25.8967 146.231 27.6156 143.802 31.0717C141.373 34.5277 140.134 39.5665 140.09 46.1879Z" fill="#6F49F6"/>
<path d="M208.138 55.5072L215.666 56.6702C214.372 62.1543 212.072 66.284 208.763 69.0555C205.454 71.8269 201.372 73.1998 196.513 73.1667C190.398 73.1262 185.465 70.8258 181.709 66.2619C177.956 61.6979 176.107 55.1354 176.162 46.5743C176.222 37.6894 178.174 30.9281 182.027 26.2832C185.876 21.6419 190.723 19.3379 196.573 19.3784C202.159 19.4152 206.807 21.7413 210.508 26.3531C214.213 30.9649 216.04 37.6157 215.981 46.3056L215.914 48.6318L183.683 48.4183C183.942 54.2042 185.284 58.5731 187.713 61.5286C190.139 64.4841 193.104 65.9748 196.609 65.9969C202.1 66.03 205.942 62.5334 208.138 55.5072ZM184.182 41.2485L208.279 41.4068C207.979 36.9459 207.025 33.6113 205.421 31.4066C203.095 28.1934 200.115 26.5739 196.476 26.5482C193.204 26.5261 190.401 27.8401 188.068 30.4901C185.743 33.1401 184.445 36.725 184.182 41.2485Z" fill="#6F49F6"/>
<path d="M251.665 66.019C249.202 68.4923 246.644 70.3474 243.993 71.5914C241.338 72.8318 238.591 73.4464 235.751 73.428C231.255 73.3986 227.676 72.0515 225.017 69.383C222.355 66.7183 221.042 63.1371 221.072 58.6467C221.091 55.6765 221.738 53.0448 223.006 50.7629C224.278 48.4772 226.008 46.6958 228.197 45.4186C230.39 44.1415 233.699 43.2103 238.132 42.6251C244.089 41.8116 248.459 40.8216 251.24 39.6585L251.303 37.4281C251.325 33.9057 250.696 31.4323 249.421 30.0006C247.616 27.9211 244.828 26.8684 241.064 26.8426C237.659 26.8206 235.108 27.4941 233.414 28.8633C231.717 30.2325 230.46 32.8126 229.643 36.6073L222.459 35.3964C223.52 29.8791 225.62 25.871 228.763 23.3718C231.902 20.8727 236.383 19.6434 242.199 19.6802C246.725 19.7096 250.275 20.5672 252.841 22.2456C255.407 23.9276 257.023 25.9961 257.684 28.4547C258.346 30.9134 258.661 34.502 258.631 39.2205L258.553 50.8512C258.498 58.9927 258.62 64.1235 258.919 66.2398C259.219 68.3562 259.825 70.421 260.739 72.4306L253.1 72.3791C252.36 70.594 251.879 68.4739 251.665 66.019ZM251.199 46.5339C248.515 47.8074 244.521 48.8784 239.227 49.7507C236.15 50.2476 233.995 50.8218 232.771 51.4769C231.543 52.1321 230.586 53.0596 229.902 54.2705C229.214 55.4777 228.866 56.8727 228.859 58.4553C228.844 60.9103 229.606 62.8794 231.151 64.359C232.693 65.8386 234.838 66.5895 237.581 66.6079C240.192 66.6263 242.569 65.9785 244.71 64.6682C246.851 63.3579 248.459 61.5986 249.531 59.3939C250.604 57.1892 251.155 53.9687 251.181 49.736L251.199 46.5339Z" fill="#6F49F6"/>
<path d="M268.071 72.4747L268.544 1.43542L275.832 1.48327L275.358 72.5226L268.071 72.4747Z" fill="#6F49F6"/>
<path d="M133.704 184.457L134.122 121.802L114.485 121.673L114.54 113.289L161.794 113.602L161.739 121.986L142.002 121.857L141.584 184.512L133.704 184.457Z" fill="#6F49F6"/>
<path d="M157.158 158.881C157.217 149.996 159.173 143.308 163.018 138.81C166.867 134.313 171.714 132.082 177.568 132.123C183.317 132.159 188.113 134.452 191.951 139.002C195.789 143.551 197.678 150.088 197.623 158.616C197.56 167.854 195.615 174.726 191.784 179.223C187.954 183.721 183.095 185.951 177.213 185.911C171.426 185.874 166.623 183.574 162.804 179.006C158.984 174.438 157.102 167.732 157.158 158.881ZM164.649 158.906C164.604 165.568 165.81 170.533 168.268 173.802C170.727 177.07 173.789 178.715 177.46 178.737C180.899 178.759 183.861 177.136 186.345 173.872C188.826 170.603 190.091 165.671 190.135 159.072C190.18 152.443 188.974 147.493 186.515 144.224C184.057 140.956 180.995 139.311 177.324 139.289C173.852 139.267 170.883 140.882 168.413 144.132C165.946 147.382 164.693 152.307 164.649 158.906Z" fill="#6F49F6"/>
<path d="M22 259.494L22.4733 188.454L30.3563 188.506L30.164 217.678L61.1563 217.881L61.3485 188.708L69.2315 188.76L68.7583 259.799L60.8752 259.747L61.0971 226.261L30.1049 226.059L29.883 259.545L22 259.494Z" fill="#6F49F6"/>
<path d="M109.959 243.501L117.487 244.664C116.193 250.148 113.893 254.278 110.584 257.05C107.275 259.821 103.193 261.194 98.3343 261.161C92.2187 261.12 87.2826 258.82 83.5297 254.256C79.773 249.692 77.928 243.13 77.9835 234.568C78.0426 225.683 79.9949 218.922 83.8439 214.277C87.693 209.636 92.5441 207.332 98.3935 207.372C103.98 207.409 108.628 209.732 112.329 214.344C116.034 218.955 117.857 225.606 117.802 234.296L117.735 236.622L85.5041 236.409C85.7629 242.195 87.1051 246.564 89.5344 249.519C91.9599 252.475 94.9253 253.965 98.4305 253.987C103.921 254.024 107.763 250.531 109.959 243.501ZM86.0033 229.243L110.103 229.401C109.804 224.94 108.85 221.605 107.242 219.397C104.916 216.184 101.936 214.564 98.2974 214.539C95.0251 214.517 92.2224 215.831 89.8893 218.481C87.5562 221.131 86.2658 224.719 86.0033 229.243Z" fill="#6F49F6"/>
<path d="M153.486 254.013C151.023 256.486 148.465 258.341 145.81 259.585C143.159 260.826 140.408 261.44 137.568 261.422C133.072 261.393 129.497 260.046 126.838 257.377C124.176 254.712 122.863 251.131 122.893 246.641C122.911 243.671 123.559 241.039 124.83 238.753C126.102 236.468 127.833 234.686 130.025 233.409C132.214 232.132 135.527 231.201 139.961 230.615C145.917 229.802 150.288 228.812 153.072 227.649L153.135 225.422C153.157 221.9 152.528 219.426 151.253 217.995C149.448 215.915 146.66 214.862 142.893 214.837C139.487 214.815 136.94 215.488 135.243 216.857C133.545 218.227 132.292 220.807 131.471 224.601L124.291 223.39C125.352 217.873 127.452 213.865 130.595 211.366C133.734 208.867 138.212 207.637 144.031 207.674C148.561 207.704 152.107 208.561 154.676 210.24C157.243 211.922 158.858 213.99 159.52 216.449C160.182 218.907 160.496 222.496 160.467 227.215L160.389 238.845C160.334 246.987 160.456 252.118 160.755 254.234C161.055 256.35 161.661 258.415 162.574 260.425L154.935 260.373C154.181 258.588 153.697 256.468 153.486 254.013ZM153.02 234.528C150.336 235.805 146.342 236.876 141.048 237.745C137.971 238.242 135.816 238.816 134.588 239.471C133.361 240.126 132.403 241.054 131.719 242.265C131.035 243.472 130.687 244.867 130.676 246.449C130.658 248.904 131.423 250.873 132.969 252.353C134.51 253.833 136.655 254.584 139.399 254.602C142.009 254.62 144.386 253.973 146.527 252.662C148.668 251.352 150.273 249.593 151.349 247.388C152.421 245.183 152.972 241.963 152.998 237.73L153.02 234.528Z" fill="#6F49F6"/>
<path d="M180.777 260.542L164.693 208.974L172.428 209.025L181.516 239.905C182.552 243.402 183.458 246.865 184.23 250.292C184.877 247.583 185.794 244.326 186.978 240.52L196.824 209.183L204.363 209.235L187.595 260.587L180.777 260.542Z" fill="#6F49F6"/>
<path d="M237.433 244.34L244.961 245.504C243.667 250.988 241.367 255.117 238.062 257.889C234.753 260.66 230.671 262.033 225.812 262C219.697 261.96 214.76 259.659 211.008 255.095C207.251 250.531 205.406 243.969 205.461 235.408C205.52 226.523 207.473 219.761 211.322 215.117C215.171 210.475 220.022 208.171 225.871 208.212C231.458 208.248 236.106 210.571 239.807 215.183C243.512 219.795 245.335 226.445 245.279 235.135L245.213 237.461L212.982 237.248C213.241 243.034 214.583 247.403 217.012 250.358C219.438 253.314 222.403 254.804 225.908 254.827C231.395 254.867 235.237 251.37 237.433 244.34ZM213.477 230.082L237.578 230.24C237.278 225.779 236.324 222.445 234.716 220.24C232.39 217.027 229.41 215.407 225.772 215.381C222.499 215.359 219.697 216.673 217.363 219.323C215.034 221.973 213.736 225.562 213.477 230.082Z" fill="#6F49F6"/>
<path d="M252.73 261.014L253.074 209.551L259.666 209.596L259.618 216.865C261.219 214.049 263.171 211.951 265.475 210.567C267.779 209.187 270.415 208.502 273.384 208.525C275.695 208.539 277.828 208.999 279.784 209.897C281.74 210.799 283.319 211.973 284.513 213.416C285.708 214.863 286.595 216.732 287.172 219.033C287.749 221.329 288.022 224.855 287.993 229.603L287.782 261.245L280.494 261.198L280.701 229.861C280.727 226.077 280.416 223.31 279.766 221.558C279.115 219.806 278.091 218.451 276.693 217.487C275.292 216.522 273.669 216.037 271.816 216.022C268.311 216 265.512 217.259 263.412 219.798C261.312 222.338 260.243 226.714 260.202 232.923L260.014 261.058L252.73 261.014Z" fill="#6F49F6"/>
</g>
<defs>
<clipPath id="clip0">
<rect x="22" width="266" height="262" fill="white"/>
</clipPath>
</defs>
</svg>
