<svg width="1417" height="86" viewBox="0 0 1417 86" fill="none" xmlns="http://www.w3.org/2000/svg">
<g filter="url(#filter0_d)">
<path d="M20.5829 1L1 62.9744H8.08418L13.6036 44.2017H34.9659L40.8718 62.9744H48.5618L27.7672 1H20.5829ZM15.5691 37.5242L21.2173 19.3448C22.4147 15.4297 23.345 11.4807 23.9985 7.50724C24.757 10.8046 25.9544 15.0893 27.5859 20.3612L32.8669 37.5242H15.5691Z" fill="#6F49F6"/>
<path d="M76.8823 19.4433C74.5664 17.7184 71.971 16.8535 69.0963 16.8535C66.8893 16.8535 64.938 17.391 63.233 18.466C61.5328 19.541 59.9841 21.3001 58.587 23.7336V17.8699H52.8848V80.2692H59.0511V58.3097C60.2541 60.1226 61.6796 61.525 63.3278 62.5169C64.9759 63.5089 66.7519 64.0024 68.6558 64.0024C72.9325 64.0024 76.6597 61.9306 79.8329 57.782C83.006 53.6335 84.5926 47.7209 84.5926 40.0493C84.5926 35.0945 83.8869 30.8531 82.4803 27.3251C81.0595 23.7971 79.1983 21.1731 76.8823 19.4433ZM75.2815 53.4233C73.3019 56.2819 71.0002 57.7136 68.3811 57.7136C65.6484 57.7136 63.3183 56.3308 61.3954 53.5699C59.4726 50.8091 58.5112 46.514 58.5112 40.6796C58.5112 34.8746 59.5294 30.4524 61.5659 27.4033C63.6024 24.359 65.8615 22.8394 68.3432 22.8394C71.1044 22.8394 73.444 24.2564 75.3715 27.0856C77.2944 29.9198 78.2558 34.2784 78.2558 40.1665C78.251 46.1475 77.2612 50.5648 75.2815 53.4233Z" fill="#6F49F6"/>
<path d="M115.447 19.4433C113.026 17.7184 110.312 16.8535 107.307 16.8535C104.999 16.8535 102.96 17.391 101.177 18.466C99.3995 19.541 97.7804 21.3001 96.3198 23.7336V17.8699H90.3584V80.2692H96.805V58.3097C98.0627 60.1226 99.553 61.525 101.276 62.5169C102.999 63.5089 104.856 64.0024 106.846 64.0024C111.317 64.0024 115.214 61.9306 118.531 57.782C121.849 53.6335 123.508 47.7209 123.508 40.0493C123.508 35.0945 122.77 30.8531 121.299 27.3251C119.814 23.7971 117.868 21.1731 115.447 19.4433ZM113.773 53.4233C111.704 56.2819 109.297 57.7136 106.559 57.7136C103.702 57.7136 101.266 56.3308 99.2559 53.5699C97.2457 50.8091 96.2406 46.514 96.2406 40.6796C96.2406 34.8746 97.3051 30.4524 99.4342 27.4033C101.563 24.359 103.925 22.8394 106.52 22.8394C109.406 22.8394 111.852 24.2564 113.867 27.0856C115.878 29.9198 116.883 34.2784 116.883 40.1665C116.883 46.1475 115.848 50.5648 113.773 53.4233Z" fill="#6F49F6"/>
<path d="M143.966 16.8535C138.882 16.8535 134.684 18.8563 131.367 22.857C128.049 26.8625 126.391 32.67 126.391 40.289C126.391 47.6308 128.035 53.2471 131.323 57.1379C134.611 61.0286 138.911 62.974 144.223 62.974C148.446 62.974 151.982 61.7743 154.842 59.3796C157.698 56.9849 159.672 53.4335 160.767 48.7206L154.22 47.7646C152.352 53.8015 149.034 56.8224 144.272 56.8224C141.227 56.8224 138.644 55.5605 136.518 53.0416C134.392 50.5226 133.201 46.78 132.943 41.8233H160.937L160.981 39.8301C160.981 32.3784 159.356 26.6856 156.112 22.7518C152.867 18.818 148.82 16.8535 143.966 16.8535ZM133.327 35.6765C133.527 31.8 134.636 28.717 136.645 26.4323C138.654 24.1475 141.081 23.0051 143.922 23.0051C147.079 23.0051 149.676 24.377 151.719 27.1206C153.125 29.0038 153.971 31.8574 154.258 35.6812H133.327V35.6765Z" fill="#6F49F6"/>
<path d="M196.428 43.4839V33.5143C196.428 29.4709 196.13 26.3978 195.541 24.2902C194.952 22.1872 193.534 20.4189 191.294 18.9947C189.054 17.5704 185.961 16.8535 182.021 16.8535C176.96 16.8535 173.073 17.9336 170.356 20.0939C167.638 22.2542 165.836 25.7048 164.945 30.4411L171.198 31.4352C171.89 28.1805 172.966 25.9581 174.432 24.7776C175.898 23.5924 178.114 23.0045 181.076 23.0045C184.354 23.0045 186.784 23.8935 188.362 25.6618C189.482 26.8805 190.042 28.9978 190.042 32.0183L189.998 33.9301C187.583 34.9433 183.789 35.8179 178.611 36.5491C174.759 37.0749 171.885 37.8921 169.986 39.0009C168.086 40.1097 166.591 41.6439 165.5 43.613C164.409 45.5821 163.863 47.8379 163.863 50.3853C163.863 54.2374 165.027 57.2962 167.355 59.5664C169.684 61.8366 172.806 62.974 176.712 62.974C179.186 62.974 181.568 62.434 183.871 61.3538C186.17 60.2737 188.386 58.6679 190.515 56.5363C190.714 58.644 191.148 60.4553 191.81 61.9799H198.454C197.65 60.2642 197.109 58.4958 196.837 56.6844C196.564 54.8587 196.428 50.4618 196.428 43.4839ZM190.003 42.5711C190.003 46.1986 189.545 48.961 188.625 50.8584C187.704 52.7558 186.316 54.2709 184.466 55.4084C182.61 56.5458 180.55 57.1098 178.275 57.1098C175.889 57.1098 174.018 56.4789 172.669 55.2172C171.315 53.9554 170.643 52.2731 170.643 50.1702C170.643 48.8129 170.935 47.6133 171.529 46.5762C172.119 45.539 172.947 44.7361 174.009 44.1674C175.07 43.5986 176.941 43.092 179.615 42.6523C184.212 41.8781 187.68 40.9366 190.008 39.8277V42.5711H190.003Z" fill="#6F49F6"/>
<path d="M209.984 1H204.219V62.9744H209.984V1Z" fill="#6F49F6"/>
<path d="M260.429 1H220.073V8.30971H236.844V62.9744H243.577V8.30971H260.429V1Z" fill="#6F49F6"/>
<path d="M273.402 16.8535C268.399 16.8535 264.267 18.7941 261.002 22.6706C257.737 26.547 256.104 32.2971 256.104 39.9162C256.104 47.5065 257.751 53.2471 261.045 57.1379C264.339 61.0286 268.456 62.974 273.402 62.974C278.434 62.974 282.575 61.0334 285.821 57.157C289.072 53.2805 290.695 47.3775 290.695 39.4573C290.695 32.1442 289.043 26.5518 285.735 22.6706C282.431 18.7893 278.324 16.8535 273.402 16.8535ZM281.139 52.6018C279.032 55.4171 276.509 56.8224 273.574 56.8224C270.439 56.8224 267.81 55.4267 265.689 52.6401C263.568 49.8534 262.51 45.6042 262.51 39.8875C262.51 34.2282 263.554 30.0028 265.646 27.2018C267.738 24.4009 270.266 23.0004 273.235 23.0004C276.37 23.0004 278.999 24.3961 281.12 27.1827C283.241 29.9694 284.299 34.2091 284.299 39.8923C284.299 45.5516 283.245 49.7865 281.139 52.6018Z" fill="#6F49F6"/>
<path d="M335.775 26.4502H309.029V1H302.225V62.9744H309.029V33.7648H335.775V62.9744H342.58V1H335.775V26.4502Z" fill="#6F49F6"/>
<path d="M367.364 16.8535C362.28 16.8535 358.081 18.8563 354.763 22.857C351.445 26.8625 349.786 32.67 349.786 40.289C349.786 47.6308 351.43 53.2471 354.719 57.1379C358.008 61.0286 362.309 62.974 367.621 62.974C371.844 62.974 375.381 61.7743 378.242 59.3796C381.097 56.9849 383.073 53.4335 384.162 48.7206L377.614 47.7646C375.746 53.8015 372.428 56.8224 367.665 56.8224C364.62 56.8224 362.036 55.5605 359.91 53.0416C357.784 50.5226 356.592 46.78 356.334 41.8233H384.333L384.377 39.8301C384.377 32.3784 382.752 26.6856 379.507 22.7518C376.266 18.818 372.219 16.8535 367.364 16.8535ZM356.724 35.6765C356.923 31.8 358.032 28.717 360.042 26.4323C362.051 24.1475 364.479 23.0051 367.32 23.0051C370.477 23.0051 373.075 24.377 375.118 27.1206C376.524 29.0038 377.371 31.8574 377.658 35.6812H356.724V35.6765Z" fill="#6F49F6"/>
<path d="M419.823 43.4812V33.5125C419.823 29.4696 419.526 26.3968 418.937 24.2894C418.347 22.1867 416.93 20.4185 414.69 18.9944C412.449 17.5703 409.356 16.8535 405.416 16.8535C400.356 16.8535 396.469 17.9335 393.751 20.0936C391.033 22.2536 389.231 25.7039 388.34 30.4397L394.594 31.4385C395.285 28.1841 396.362 25.962 397.828 24.7816C399.294 23.5964 401.51 23.0087 404.471 23.0087C407.749 23.0087 410.179 23.8975 411.757 25.6657C412.878 26.8843 413.438 29.0013 413.438 32.0215L413.394 33.9331C410.978 34.9462 407.184 35.8207 402.007 36.5519C398.154 37.0775 395.281 37.8947 393.381 39.0034C391.482 40.1121 389.986 41.6461 388.895 43.615C387.804 45.5839 387.259 47.8395 387.259 50.3866C387.259 54.2383 388.423 57.2968 390.751 59.5667C393.079 61.8367 396.201 62.974 400.107 62.974C402.581 62.974 404.963 62.434 407.267 61.354C409.566 60.274 411.782 58.6683 413.91 56.5369C414.11 58.6444 414.543 60.4556 415.206 61.98H421.849C421.046 60.2644 420.505 58.4963 420.232 56.6851C419.959 54.8548 419.823 50.4583 419.823 43.4812ZM413.394 42.5684C413.394 46.1956 412.936 48.9577 412.016 50.8549C411.095 52.7521 409.707 54.267 407.856 55.4044C406.001 56.5417 403.94 57.1056 401.666 57.1056C399.279 57.1056 397.409 56.4748 396.06 55.2132C394.706 53.9516 394.034 52.2695 394.034 50.1668C394.034 48.8096 394.326 47.6101 394.92 46.5731C395.509 45.5361 396.337 44.7332 397.399 44.1645C398.461 43.5959 400.331 43.0893 403.005 42.6497C407.603 41.8755 411.071 40.9341 413.399 39.8254V42.5684H413.394Z" fill="#6F49F6"/>
<path d="M441.462 45.5564C440.451 48.8667 439.67 51.6979 439.123 54.0548C438.429 51.0833 437.619 48.0827 436.696 45.0531L428.594 18.2949H421.85L436.173 62.9742H442.116L456.44 18.2949H449.867L441.462 45.5564Z" fill="#6F49F6"/>
<path d="M474.018 16.8535C468.934 16.8535 464.735 18.8563 461.417 22.857C458.099 26.8625 456.44 32.67 456.44 40.289C456.44 47.6308 458.085 53.2471 461.374 57.1379C464.662 61.0286 468.963 62.974 474.276 62.974C478.498 62.974 482.035 61.7743 484.896 59.3796C487.752 56.9849 489.727 53.4335 490.817 48.7206L484.268 47.7646C482.4 53.8015 479.082 56.8224 474.319 56.8224C471.274 56.8224 468.691 55.5605 466.565 53.0416C464.439 50.5226 463.247 46.78 462.989 41.8233H490.987L491.031 39.8301C491.031 32.3784 489.406 26.6856 486.161 22.7518C482.921 18.818 478.873 16.8535 474.018 16.8535ZM463.378 35.6765C463.577 31.8 464.687 28.717 466.696 26.4323C468.705 24.1475 471.133 23.0051 473.974 23.0051C477.131 23.0051 479.729 24.377 481.773 27.1206C483.179 29.0038 484.025 31.8574 484.312 35.6812H463.378V35.6765Z" fill="#6F49F6"/>
<path d="M523.974 21.0792C522.934 19.8188 521.566 18.8027 519.869 18.0211C518.172 17.2443 516.33 16.8535 514.333 16.8535C511.771 16.8535 509.498 17.4642 507.516 18.6903C505.534 19.9165 503.861 21.768 502.492 24.2447V17.8696H496.797V62.9691H503.092V38.3139C503.092 32.8719 503.991 29.0321 505.79 26.7948C507.588 24.5574 510.001 23.4338 513.023 23.4338C514.623 23.4338 516.025 23.8539 517.239 24.6893C518.452 25.5246 519.342 26.7068 519.913 28.2408C520.483 29.7698 520.768 32.1928 520.768 35.5098V62.974H527.063V35.2411C527.063 31.079 526.807 27.9965 526.295 25.9838C525.792 23.9712 525.013 22.3395 523.974 21.0792Z" fill="#6F49F6"/>
<path d="M583.633 32.6499H608.094V26.7519H581.911C581.993 25.5285 581.993 24.3245 581.993 23.1546V11.2222H609.903V5.32422H548.986V11.2222H576.023V23.1595C576.023 24.3342 576.023 25.5431 575.936 26.7568H551.065V32.6548H575.299C573.795 40.6195 569.121 51.6989 548.181 59.1372L547.24 59.4735L547.973 60.1608C548.861 60.9943 550.153 62.8368 550.578 63.88L550.795 64.4161L551.335 64.226C566.879 58.7083 576.254 50.4023 579.934 38.8696C585.374 52.1376 594.455 60.4435 607.66 64.2358L608.114 64.3674L608.35 63.9579C609.093 62.6662 610.39 60.7701 611.34 59.8099L612.097 59.0446L611.056 58.7862C597.311 55.3839 588.33 46.8343 583.633 32.6499Z" fill="#6F49F6"/>
<path d="M616.425 62.9747H621.919V59.7594H666.938V62.9747H672.629V3.88281H616.42V62.9747H616.425ZM666.938 9.25738V54.4461H621.919V9.25738H666.938Z" fill="#6F49F6"/>
<path d="M663.983 44.7985H657.784L661.629 42.4855L661.263 41.951C659.844 39.8664 656.884 36.6787 654.064 34.1956L653.746 33.9186L649.694 36.149L650.31 36.7224C652.808 39.0451 655.734 42.3981 657.11 44.5167L657.288 44.7937H646.629V33.5687H660.821V28.5053H646.629V19.1075H662.495V13.9712H626.142V19.1075H641.205V28.5053H628.081V33.5736H641.205V44.7985H625.068V50.0028H663.963V44.7985H663.983Z" fill="#6F49F6"/>
<path d="M705.093 18.2834C712.027 18.1281 725.461 17.4332 734.071 16.1702L734.604 16.0925L734.109 11.0894L733.476 11.1834C724.494 12.5282 712.844 13.1781 704.933 13.3375L704.338 13.3498L704.503 18.2957L705.093 18.2834Z" fill="#6F49F6"/>
<path d="M691.742 36.8863C691.449 37.6312 690.96 38.8601 690.392 40.2929C689.489 42.5609 688.428 45.2368 687.595 47.3624C687.269 44.7291 687.101 41.0948 687.101 36.5115C687.101 29.9592 688.13 18.4725 690.42 7.40331C691.933 7.33689 692.469 6.57301 692.65 5.90876L692.818 5.27773L684.82 3.88281L684.718 4.45691C682.562 16.3327 681.277 28.3887 681.277 36.7108C681.277 46.2522 682.218 53.7439 684.159 59.6035L684.322 60.0922L690.052 59.0199L689.866 58.3841C689.657 57.6772 689.568 57.0983 689.568 56.51C689.568 55.6987 689.736 54.7118 690.062 53.5826C690.555 51.9599 691.398 50.0289 692.459 47.5854C693.311 45.6306 694.368 43.1919 695.55 40.2313L695.69 39.8754L692.087 36.0275L691.742 36.8863Z" fill="#6F49F6"/>
<path d="M726.796 49.9811C720.159 49.9811 709.052 49.9811 709.052 42.8593C709.052 39.272 711.261 36.254 714.577 32.8246L715.178 32.2028L709.62 29.8257L709.331 30.1653C705.466 34.69 702.896 38.6742 702.896 43.3949C702.896 49.5363 707.594 53.8888 715.462 55.0319C718.701 55.5006 723.268 55.7685 728.004 55.7685C730.506 55.7685 732.999 55.7015 735.401 55.5676L735.959 55.5389L736.046 49.608L735.391 49.6558C732.335 49.8663 729.361 49.9811 726.796 49.9811Z" fill="#6F49F6"/>
<path d="M766.312 2.44141H744.693V8.20647H766.312V2.44141Z" fill="#6F49F6"/>
<path d="M793.269 39.1593V28.7173H803.316V23.3851H776.173V12.8531C785.441 10.7932 793.891 8.27858 798.912 6.08601C799.089 6.11915 799.237 6.11916 799.39 6.11916C799.916 6.11916 800.313 5.97709 800.61 5.68348L801.074 5.22413L795.942 1L795.588 1.18469C791.6 3.26834 784.269 5.69295 774.934 8.00865L770.592 6.62586V30.0338C770.592 38.7662 769.922 48.6162 765.202 56.3731V38.5342H743.252V62.1836H748.441V59.0865H764.002L764.007 60.2231L764.585 59.4133C765.633 60.081 766.823 61.2744 767.283 62.0321L767.746 62.7945L768.277 62.0794C773.695 54.7866 775.446 45.3202 775.972 37.1845L776.292 37.3076C779.965 38.7378 783.972 40.5326 787.621 42.3889V62.9744H793.274V45.4244C796.153 47.0913 798.467 48.5878 800.165 49.8759L800.619 50.2216L800.988 49.7859C801.318 49.3976 801.538 49.0282 802.977 46.6273L803.785 45.2871L803.336 44.9698C800.954 43.2981 797.482 41.2903 793.269 39.1593ZM759.942 43.4734V54.1473H748.431V43.4734H759.942ZM776.015 36.4221C776.139 34.2011 776.177 32.0938 776.177 30.1664V28.7173H787.621V36.4268C784.46 35.0109 781.562 33.8033 778.985 32.842L778.54 32.6763L776.015 36.4221Z" fill="#6F49F6"/>
<path d="M767.753 11.0894H740.369V16.8544H767.753V11.0894Z" fill="#6F49F6"/>
<path d="M766.312 21.1777H743.252V25.5015H766.312V21.1777Z" fill="#6F49F6"/>
<path d="M766.312 29.8257H743.252V34.1495H766.312V29.8257Z" fill="#6F49F6"/>
<path d="M847.705 12.3659L848.293 12.5303L849.906 6.95509L849.328 6.7954C841.648 4.64424 829.585 2.86412 819.991 2.46019L819.481 2.44141L818.198 7.98371L818.922 8.01658C827.71 8.39703 840.355 10.3087 847.705 12.3659Z" fill="#6F49F6"/>
<path d="M862.605 55.5381V54.815L861.897 54.9323C859.645 55.3085 856.398 55.5381 853.219 55.5381C847.449 55.5381 843.969 55.5381 843.969 49.2161C843.969 48.4344 844.018 47.5452 844.066 46.6022C844.12 45.63 844.173 44.6284 844.173 43.7099C844.173 39.2005 841.543 36.1665 837.626 36.1665C836.161 36.1665 834.777 36.3473 833.443 36.7186C836.559 33.7481 840.359 30.2011 843.79 27.001C845.682 25.2324 847.415 23.6153 848.764 22.345C849.439 22.2668 849.997 22.1105 850.507 21.6854L851.04 21.2359L846.279 16.8535L844.998 17.6254C838.073 18.2362 820.383 19.1107 811.147 19.3794L810.512 19.3989L811.011 26.1167L811.642 26.0385C812.215 25.9653 812.676 25.7063 812.996 25.2764C820.49 24.8758 833.059 24.1478 838.956 23.6739C828.434 33.9582 811.317 50.7306 805.668 56.5396L805.227 56.994L805.692 57.4191C808.493 59.9791 809.264 60.9367 809.269 60.9465L809.725 61.5328L810.206 60.9612C812.438 58.3131 819.602 51.0237 823.737 46.9345C827.604 43.1774 832.496 41.4625 835.399 41.4625C836.617 41.4625 838.233 41.8631 838.233 45.3368C838.233 46.4166 838.194 47.765 838.16 49.0695C838.131 50.1932 838.102 51.2583 838.102 52.0058C838.18 56.6178 841.48 60.2136 846.313 60.9612C848.046 61.2299 850.57 61.3764 853.428 61.3764C856.558 61.3764 859.694 61.2299 862.266 60.966L862.877 60.9025L862.809 60.2869C862.8 60.2772 862.605 58.5183 862.605 55.5381Z" fill="#6F49F6"/>
<path d="M899.522 25.7843C895.161 25.7843 889.829 26.8048 885.541 28.3879C891.752 22.5942 901.76 13.4626 905.922 10.1009C906.578 10.0055 907.233 9.74325 907.675 9.39992L908.156 9.02321L903.888 3.88281L902.528 4.50748C897.458 5.23705 880.097 5.8808 871.22 5.94755L870.559 5.95232L871.23 12.9286L871.914 12.7617C872.463 12.6282 873.143 12.2753 873.531 11.7746C880.335 11.5362 891.334 11.107 896.574 10.6493C887.527 18.9797 869.263 36.0985 863.29 42.2212L862.877 42.6408L867.204 46.8895L867.631 46.4079C869.273 44.553 871.948 41.7014 874.08 39.7416C878.528 35.5072 888.231 31.2204 898.181 31.2204C906.393 31.2204 911.492 35.4929 911.492 42.3643C911.492 47.5857 908.496 51.7724 903.237 53.9468C901.921 47.9767 896.744 42.164 888.998 42.164C882.554 42.164 877.314 46.4174 877.314 51.6484C877.314 57.6519 883.36 61.5335 892.718 61.5335C907.627 61.5335 917.645 53.8038 917.645 42.2975C917.626 32.2647 910.521 25.7843 899.522 25.7843ZM882.632 51.5865C882.632 48.754 885.657 47.2758 888.644 47.2758C892.942 47.2758 896.613 50.7567 897.545 55.6349C895.87 55.9639 893.835 56.1642 892.092 56.1642C883.317 56.1642 882.632 52.6594 882.632 51.5865Z" fill="#6F49F6"/>
<path d="M952.235 26.9419H947.911V32.707H952.235V26.9419Z" fill="#6F49F6"/>
<path d="M960.883 26.9419H955.118V32.707H960.883V26.9419Z" fill="#6F49F6"/>
<path d="M1002.68 22.6191H996.916V28.3842H1002.68V22.6191Z" fill="#6F49F6"/>
<path d="M1009.89 22.6191H1005.56V28.3842H1009.89V22.6191Z" fill="#6F49F6"/>
<path d="M1005.56 16.8535H1001.24V21.1773H1005.56V16.8535Z" fill="#6F49F6"/>
<path d="M1063.21 58.6504H1057.45V64.4155H1063.21V58.6504Z" fill="#6F49F6"/>
<path d="M1059.05 43.0949C1059.05 47.2506 1057.65 49.2709 1054.76 49.2709H1044.44C1046.15 48.6758 1047.59 47.7641 1048.74 46.55C1050.21 44.9808 1050.96 43.2917 1050.96 41.5353C1050.96 38.9057 1050.11 36.5159 1048.43 34.4333C1046.75 32.3314 1044.94 31.2661 1043.05 31.2661C1041.2 31.2661 1039.06 32.8641 1036.52 36.156C1034.07 39.3423 1032.34 43.7331 1031.4 49.2133C1030.35 49.2517 1029.49 49.2709 1028.84 49.2709H1027.62C1024.72 49.2709 1023.31 46.9771 1023.31 42.2504V33.1712H1017.69V42.2504C1017.69 46.9723 1016.22 49.2709 1013.19 49.2709H1012.72C1009.54 49.2709 1007.98 46.9771 1007.98 42.2504V37.1493H1002.37V42.3751C1002.37 44.952 1002.07 46.7131 1001.46 47.7641C1000.87 48.7766 999.92 49.2709 998.56 49.2709C997.161 49.2709 996.215 48.767 995.667 47.7257C995.1 46.6556 994.811 44.8992 994.811 42.4999V37.1493H989.193V43.0949C989.193 47.2506 987.78 49.2709 984.878 49.2709H980.615C977.712 49.2709 976.299 47.3322 976.299 43.3493C976.299 42.1448 976.246 41.0459 976.145 40.0861L976.102 39.659H970.474L970.561 40.2157C970.643 40.7196 970.681 41.3434 970.681 42.068C970.681 45.1296 969.196 47.6537 966.265 49.578C963.304 51.5167 959.455 52.5004 954.836 52.5004C946.316 52.5004 942 50.0243 942 45.1344C942 43.3732 942.255 41.7129 942.759 40.2061L942.923 39.7214L937.627 38.3298L937.473 38.7329C936.752 40.6188 936.382 42.7926 936.382 45.1968C936.382 49.5732 938.006 53.0042 941.207 55.4036C944.388 57.7934 948.973 59.0026 954.836 59.0026C963.155 59.0026 969.158 56.4161 972.69 51.3151C974.314 54.3335 976.986 55.8067 980.85 55.8067H984.993C988.093 55.8067 990.51 54.8805 992.187 53.0522C993.6 54.8805 995.782 55.8067 998.67 55.8067C999.55 55.8067 1000.71 55.538 1002.11 55.0101C1003.43 54.5158 1004.44 53.8584 1005.14 53.0474C1006.77 54.8805 1009.32 55.8067 1012.7 55.8067H1013.18C1016.23 55.8067 1018.68 54.8709 1020.45 53.033C1022.13 54.8757 1024.61 55.8067 1027.84 55.8067H1029C1029.5 55.8067 1030.14 55.7731 1030.94 55.7011C1030.98 60.0008 1032.33 63.9885 1034.93 67.5539C1037.59 71.2105 1040.26 73.0628 1042.86 73.0628C1045.09 73.0628 1046.91 72.2423 1048.28 70.6203C1049.64 69.0127 1050.32 66.8389 1050.32 64.1708C1050.32 62.5633 1049.61 60.8453 1048.19 59.0602C1047.04 57.6062 1045.62 56.5169 1043.96 55.8067H1054.49C1057.91 55.8067 1060.49 54.8326 1062.16 52.9131C1063.81 51.0032 1064.65 47.7401 1064.65 43.2197V37.1493H1059.04V43.0949H1059.05ZM1043.15 45.9837C1041.48 47.4042 1039.46 48.3831 1037.15 48.8966C1037.73 45.6142 1038.66 42.9222 1039.93 40.8923C1041.53 38.3346 1042.51 37.7972 1043.05 37.7972C1043.59 37.7972 1044.16 38.1619 1044.8 38.9105C1045.44 39.6638 1045.76 40.542 1045.76 41.5257C1045.76 43.0229 1044.88 44.5201 1043.15 45.9837ZM1036.57 55.9027V55.7443C1038.96 56.4161 1041 57.6302 1042.63 59.3529C1044.32 61.1285 1045.17 62.7504 1045.17 64.1708C1045.17 65.7544 1044.42 66.5222 1042.88 66.5222C1041.52 66.5222 1040.16 65.3609 1038.73 62.9664C1037.29 60.567 1036.57 58.1917 1036.57 55.9027Z" fill="#6F49F6"/>
<path d="M1097.2 37.0317H1090.27L1090.59 37.6966C1092.52 41.7233 1093.5 45.4269 1093.5 48.6998C1093.5 58.1906 1088.35 63.0039 1078.18 63.0039C1076.82 63.0039 1075.26 62.8541 1073.55 62.5638L1073.07 62.4842L1071.86 68.2854L1072.39 68.3416C1074.81 68.6038 1076.74 68.7396 1078.12 68.7396C1084.59 68.7396 1089.78 66.9791 1093.56 63.5002C1097.33 60.0213 1099.24 55.0395 1099.24 48.6951C1099.24 44.7199 1098.6 40.9039 1097.31 37.3408L1097.2 37.0317Z" fill="#6F49F6"/>
<path d="M1096.36 25.502H1090.6V31.267H1096.36V25.502Z" fill="#6F49F6"/>
<path d="M1109.33 9.64697H1103.57V55.7675H1109.33V9.64697Z" fill="#6F49F6"/>
<path d="M1197.84 22.3622C1193.46 18.7059 1187.86 16.8535 1181.18 16.8535C1177.84 16.8535 1174.83 17.1147 1172.25 17.6225L1171.74 17.7241L1173.49 24.2968L1173.93 24.2146C1176.78 23.6826 1179.23 23.4118 1181.18 23.4118C1186.48 23.4118 1190.8 24.6402 1194.01 27.0633C1197.21 29.4719 1198.83 32.6736 1198.83 36.5815C1198.83 39.5365 1197.9 41.9838 1196.06 43.8458C1194.33 45.616 1191.89 46.6123 1188.81 46.8154C1190.43 44.847 1191.25 42.7141 1191.25 40.4603C1191.25 37.4472 1190.26 34.8839 1188.31 32.8429C1186.35 30.797 1183.81 29.762 1180.76 29.762C1177.68 29.762 1175.13 30.8164 1173.18 32.8912C1171.22 34.9661 1170.23 37.4472 1170.23 40.2668C1170.23 43.4009 1171.58 46.1383 1174.25 48.4066C1171.89 48.808 1169.27 49.016 1166.47 49.016H1166C1165.46 49.016 1164.52 48.7307 1163.12 48.1454C1161.24 47.391 1159.93 47.0282 1159.1 47.0282C1157.18 47.0282 1155.52 47.6763 1154.17 48.9483C1152.82 50.2251 1152.13 51.7244 1152.13 53.3978C1152.13 54.4425 1152.86 56.0917 1154.38 58.4374C1155.52 60.2318 1155.69 60.817 1155.69 61.0056C1155.69 62.3308 1154.11 63.5786 1150.99 64.7152C1147.8 65.8807 1143.71 66.4708 1138.84 66.4708C1133.78 66.4708 1130.17 65.9098 1128.1 64.8071C1126.08 63.7285 1125.05 62.0551 1125.05 59.84C1125.05 58.1472 1125.34 56.2127 1125.93 54.0943L1126.06 53.6251L1120.9 52.2226L1120.76 52.6627C1119.87 55.4292 1119.42 57.8667 1119.42 59.9029C1119.42 64.1493 1121.2 67.4429 1124.71 69.6967C1128.18 71.9312 1132.92 73.0629 1138.79 73.0629C1145.09 73.0629 1150.47 71.8586 1154.77 69.4839C1159.12 67.085 1161.32 64.4975 1161.32 61.7988C1161.32 60.9476 1160.62 59.4724 1159.19 57.2864C1157.95 55.4437 1157.76 54.8536 1157.76 54.665C1157.76 54.3941 1157.88 54.1572 1158.12 53.9444C1158.37 53.7267 1158.7 53.6203 1159.1 53.6203C1159.69 53.6203 1160.68 53.9202 1162.07 54.5199C1163.76 55.2454 1165.06 55.6081 1165.94 55.6081H1166.36C1171.69 55.6081 1176.86 54.4135 1181.74 52.0533C1183.65 52.5273 1185.65 52.7691 1187.66 52.7691C1192.38 52.7691 1196.4 51.1972 1199.61 48.1019C1202.83 45.0017 1204.46 41.0842 1204.46 36.4557C1204.46 30.768 1202.24 26.0283 1197.84 22.3622ZM1177.2 37.5101C1178.08 36.7411 1179.27 36.3493 1180.76 36.3493C1182.16 36.3493 1183.33 36.7507 1184.25 37.5439C1185.16 38.3274 1185.62 39.3044 1185.62 40.4555C1185.62 42.5883 1184.24 44.4649 1181.51 46.0271C1177.79 44.8179 1175.9 42.8834 1175.9 40.2668C1175.9 39.2028 1176.34 38.2742 1177.2 37.5101Z" fill="#6F49F6"/>
<path d="M1213.11 9.64697H1208.78V55.7675H1213.11V9.64697Z" fill="#6F49F6"/>
<path d="M1267.87 16.8535H1262.11V22.6186H1267.87V16.8535Z" fill="#6F49F6"/>
<path d="M1271.57 33.7292C1265.61 30.1833 1261.16 27.903 1258.33 26.9464C1255.49 25.9851 1252.94 25.502 1250.76 25.502C1249.1 25.502 1247.51 25.7483 1246 26.2266L1245.6 26.3522L1246.66 32.7534L1247.16 32.6374C1248.77 32.2654 1250.19 32.077 1251.39 32.077C1256.65 32.077 1261.27 34.3573 1268.8 38.4009C1267.76 38.6473 1266.73 39.2656 1265.09 40.2512C1263.76 41.0531 1262.1 42.0483 1259.7 43.2996C1255.24 45.6185 1252.04 47.0968 1250.2 47.7007C1248.36 48.2997 1246.81 48.6041 1245.6 48.6041H1238.83C1238.65 43.1353 1237.41 38.6859 1235.16 35.3766C1232.86 31.9997 1230.29 30.2847 1227.51 30.2847C1224.82 30.2847 1222.42 31.4973 1220.37 33.8935C1218.32 36.28 1217.29 39.2656 1217.29 42.7682C1217.29 46.662 1218.57 49.7442 1221.1 51.9182C1223.61 54.0873 1226.5 55.184 1229.67 55.184H1231.88C1230.95 57.5705 1229.08 59.3387 1226.33 60.4402C1223.43 61.5996 1219.13 62.189 1213.53 62.189C1212.18 62.189 1210.66 62.0296 1209.01 61.7108L1208.53 61.619L1207.34 68.2713L1207.85 68.3293C1210.23 68.5998 1212.12 68.7399 1213.47 68.7399C1220.2 68.7399 1225.74 67.5805 1229.95 65.2906C1234.13 63.02 1236.87 59.6189 1238.1 55.1792H1245.42C1246.92 55.1792 1248.71 54.8362 1250.77 54.1598C1252.8 53.4883 1256.23 51.8361 1260.95 49.2563C1265.96 46.5219 1269.63 44.7731 1271.88 44.0581C1274.01 43.3817 1275.89 43.0194 1277.49 42.9807L1277.96 42.9711V37.3139L1277.62 37.2076C1277.34 37.1207 1275.36 35.9805 1271.57 33.7292ZM1224.37 38.5603C1225.29 37.4202 1226.35 36.8453 1227.51 36.8453C1229.01 36.8453 1230.34 38.0337 1231.46 40.3768C1232.58 42.7199 1233.16 45.488 1233.19 48.6089H1229.36C1227.55 48.6089 1226.01 48.0388 1224.79 46.918C1223.58 45.8021 1222.96 44.4059 1222.96 42.773C1222.97 41.1304 1223.44 39.7101 1224.37 38.5603Z" fill="#6F49F6"/>
<path d="M1302.96 32.7085C1300.36 32.7085 1298.17 33.7808 1296.45 35.8967C1294.75 37.9839 1293.24 41.5264 1291.96 46.4284C1291.49 48.2667 1290.59 49.4682 1289.31 49.9996C1287.2 50.8469 1285.73 51.9958 1284.92 53.408C1284.13 54.8106 1283.73 57.1468 1283.73 60.3541V73.0639H1289.3V61.2589C1289.3 60.2584 1289.36 59.3824 1289.48 58.6547C1289.59 57.9462 1289.79 57.3574 1290.07 56.9026C1290.34 56.467 1290.86 56.084 1291.63 55.7729C1293.17 55.141 1294.31 54.442 1294.99 53.6905C1296.79 55.2894 1298.92 56.0984 1301.34 56.0984C1304.51 56.0984 1307.2 55.0739 1309.34 53.0586C1311.47 51.0384 1312.55 48.0895 1312.55 44.2933C1312.55 41.153 1311.63 38.4147 1309.8 36.1457C1307.96 33.867 1305.66 32.7085 1302.96 32.7085ZM1305.49 48.1278C1304.5 49.0948 1303.2 49.5831 1301.63 49.5831C1300.28 49.5831 1298.83 49.0278 1297.32 47.9268C1298.74 42.1343 1300.64 39.1998 1302.96 39.1998C1304.09 39.1998 1305.05 39.6833 1305.81 40.6312C1306.58 41.5982 1306.98 42.8285 1306.98 44.2933C1306.98 45.8731 1306.48 47.1656 1305.49 48.1278Z" fill="#6F49F6"/>
<path d="M1354.35 54.3267H1348.58V61.533H1354.35V54.3267Z" fill="#6F49F6"/>
<path d="M1363.96 43.712L1364.44 43.7024V38.095L1364.1 37.9899C1363.73 37.88 1360.43 35.9743 1357.98 34.5509C1351.96 31.0451 1347.47 28.7906 1344.61 27.8449C1341.75 26.8944 1339.18 26.4168 1336.97 26.4168C1335.3 26.4168 1333.68 26.6604 1332.16 27.1332L1331.76 27.2574L1332.83 33.5861L1333.34 33.4714C1334.96 33.1037 1336.39 32.9174 1337.6 32.9174C1342.92 32.9174 1347.58 35.1718 1355.19 39.1696C1354.14 39.4132 1353.1 40.0246 1351.44 40.999C1350.1 41.7919 1348.42 42.7758 1346 44.0129C1341.5 46.3055 1338.27 47.7671 1336.41 48.3641C1334.55 48.9564 1332.99 49.2573 1331.77 49.2573H1326.93C1324 49.2573 1322.58 47.2465 1322.58 43.1101V9.64697H1316.88V43.2439C1316.88 47.533 1317.68 50.7237 1319.27 52.7249C1320.86 54.7453 1323.53 55.7675 1327.2 55.7675H1331.58C1333.09 55.7675 1334.9 55.4284 1336.98 54.7597C1339.04 54.0958 1342.5 52.4622 1347.26 49.9117C1352.32 47.2083 1356.03 45.4744 1358.3 44.7675C1360.44 44.1036 1362.35 43.7454 1363.96 43.712Z" fill="#6F49F6"/>
<path d="M1401.91 5.32422H1396.15V11.0893H1401.91V5.32422Z" fill="#6F49F6"/>
<path d="M1408.56 24.7367C1406.26 21.4205 1403.63 19.7363 1400.77 19.7363C1398.32 19.7363 1396.06 20.8844 1394.07 23.1522C1392.1 25.4104 1391.09 28.1336 1391.09 31.2505C1391.09 35.0127 1392.18 37.9304 1394.34 39.9372C1396.5 41.9393 1399.22 42.9545 1402.41 42.9545C1403.06 42.9545 1404.02 42.7648 1405.27 42.39C1403.94 44.634 1401.94 46.2897 1399.31 47.3097C1396.48 48.4104 1392.37 48.9655 1387.11 48.9655H1386.87C1384.12 48.9655 1382.67 47.7936 1382.43 45.3788C1382.28 43.8085 1381.99 42.0769 1381.56 40.2314L1381.47 39.8613H1375.29L1375.49 40.4828C1376.45 43.4479 1376.94 46.1237 1376.94 48.4341C1376.94 58.0506 1371.9 62.9277 1361.97 62.9277C1360.63 62.9277 1359.11 62.7759 1357.44 62.4817L1356.98 62.4011L1355.79 68.2792L1356.31 68.3361C1358.68 68.6018 1360.56 68.7394 1361.91 68.7394C1367.24 68.7394 1371.74 67.43 1375.3 64.8444C1378.79 62.3157 1381.02 58.7006 1381.95 54.0892C1383.1 54.9622 1384.81 55.4129 1387.03 55.4223H1387.22C1394.92 55.4034 1401.03 53.7714 1405.38 50.569C1409.77 47.3335 1412 42.7695 1412 37.01C1412 32.1567 1410.85 28.0245 1408.56 24.7367ZM1406.28 35.8287C1404.76 36.2652 1403.36 36.4882 1402.11 36.4882C1400.53 36.4882 1399.21 36.009 1398.21 35.0602C1397.21 34.1161 1396.7 32.8351 1396.7 31.2505C1396.7 29.7798 1397.09 28.5558 1397.88 27.607C1398.66 26.6724 1399.63 26.198 1400.77 26.198C1402.15 26.198 1403.41 27.2227 1404.54 29.2437C1405.67 31.2695 1406.25 33.4803 1406.28 35.8287Z" fill="#6F49F6"/>
</g>
<defs>
<filter id="filter0_d" x="0" y="0" width="1417" height="85.2692" filterUnits="userSpaceOnUse" color-interpolation-filters="sRGB">
<feFlood flood-opacity="0" result="BackgroundImageFix"/>
<feColorMatrix in="SourceAlpha" type="matrix" values="0 0 0 0 0 0 0 0 0 0 0 0 0 0 0 0 0 0 127 0"/>
<feOffset dx="2" dy="2"/>
<feGaussianBlur stdDeviation="1.5"/>
<feColorMatrix type="matrix" values="0 0 0 0 0.478431 0 0 0 0 0.243137 0 0 0 0 0.992157 0 0 0 0.6 0"/>
<feBlend mode="normal" in2="BackgroundImageFix" result="effect1_dropShadow"/>
<feBlend mode="normal" in="SourceGraphic" in2="effect1_dropShadow" result="shape"/>
</filter>
</defs>
</svg>
