<?xml version="1.0" encoding="utf-8"?>
<!-- Generator: Adobe Illustrator 23.0.1, SVG Export Plug-In . SVG Version: 6.00 Build 0)  -->
<svg version="1.1" id="Layer_1" xmlns="http://www.w3.org/2000/svg" xmlns:xlink="http://www.w3.org/1999/xlink" x="0px" y="0px"
	 viewBox="0 0 686.1 163.8" style="enable-background:new 0 0 686.1 163.8;" xml:space="preserve">
<style type="text/css">
	.st0{fill:#6F49F6;}
</style>
<path class="st0" d="M-331.7,147.2h-1.4v1.5h1.4V147.2z"/>
<path class="st0" d="M-328.8,147.2h-1.4v1.5h1.4V147.2z"/>
<path class="st0" d="M443.8,133h-19.1c3.4,10.7,10.3,18.1,21.7,20.9c-0.8,0.8-1.8,2.3-2.4,3.3c-10.9-3.1-17.7-10-21.6-20.4
	c-2.1,7.8-7.7,15.3-22.2,20.4c-0.4-0.9-1.4-2.3-2.1-3c15.3-5.4,20-13.3,21.3-21.1h-18.8v-3.6h19.2c0.1-1.1,0.1-2.2,0.1-3.2v-9.6
	h-20.9V113h46.1v3.6h-21.6v9.6c0,1,0,2.1-0.1,3.2h20.3L443.8,133L443.8,133z"/>
<path class="st0" d="M451,111.4h43.6v45.8H491v-2.5h-36.6v2.5H451L451,111.4L451,111.4z M454.4,151.3H491v-36.6h-36.6V151.3z
	 M474.1,143.1h13.4v3.1h-29.2v-3.1h12.5v-9.5h-10.2v-3h10.2v-8.1h-11.7v-3h27.2v3h-12.3v8.1h11v3h-11V143.1z M483.1,142.2
	c-1.1-1.7-3.4-4.3-5.3-6.1l2.3-1.2c2,1.8,4.4,4.2,5.5,5.9L483.1,142.2z"/>
<path class="st0" d="M510.3,112.7c-0.2,0.6-0.7,0.9-1.7,0.8c-1.8,8.4-2.7,17.7-2.7,23.3c0,3.9,0.2,7.8,0.7,10.3c1-2.5,3.2-8,3.9-9.8
	l2.2,2.3c-2.1,5.2-3.7,8.2-4.4,10.5c-0.3,0.9-0.4,1.7-0.4,2.4c0,0.6,0.1,1.1,0.3,1.6l-3.7,0.7c-1.7-4.9-2.3-10.9-2.3-17.8
	c0-6.8,1.1-16.3,2.7-25.2L510.3,112.7z M543.3,150.6c-1.9,0.1-3.8,0.2-5.7,0.2c-3.7,0-7.2-0.2-9.6-0.6c-6.4-0.9-9.3-4.5-9.3-8.6
	c0-3.6,2-6.6,4.9-10l3.4,1.4c-2.6,2.7-4.4,5.2-4.4,8.1c0,6,8.8,6,14.2,6c2.2,0,4.5-0.1,6.7-0.3L543.3,150.6z M519.3,118.9
	c6.7-0.2,15.7-0.8,22.6-2l0.3,3.6c-6.4,1.1-16.8,1.8-22.8,1.9L519.3,118.9z"/>
<path class="st0" d="M568.5,117.7v2.9h-20.7v-2.9H568.5z M588.3,130.1v9c3.2,1.6,6.1,3.3,8,4.7c-1.4,2.4-1.7,2.8-1.9,3.1
	c-1.5-1.2-3.7-2.5-6.1-3.9v14.1h-3.5v-16c-3-1.6-6.2-3-9.1-4.1l1.8-2.6c2.3,0.9,4.9,2,7.4,3.1v-7.3H575v1.6c0,7.4-0.7,17.6-6.1,24.8
	c-0.5-0.8-1.7-2-2.6-2.4l0.1-0.1h-13v2.4h-3.1v-17.7h16.2v15.1c4.7-6.6,5.1-15.3,5.1-22.3v-17.8l2.9,0.9c6-1.5,12.6-3.5,16.3-5.4
	l3.4,2.8c-0.2,0.2-0.4,0.2-0.6,0.2c-0.2,0-0.3,0-0.4-0.1c-4.4,2-11.6,4-18.1,5.4v9.1h21.1v3.3L588.3,130.1L588.3,130.1z
	 M566.6,124.7v2.9h-16.3v-2.9H566.6z M550.3,134.6v-2.8h16.3v2.8H550.3z M566.6,110.8v2.8h-16v-2.8H566.6z M563.2,151.1v-9.3h-9.9
	v9.3H563.2z"/>
<path class="st0" d="M617.8,138c1.8-0.9,3.5-1.2,5.1-1.2c2.6,0,4.6,2,4.6,5.3c0,1.3-0.2,3-0.2,4.2c0,5.3,3.1,5.3,7.6,5.3
	c2.3,0,4.9-0.2,6.7-0.5c0,2.3,0.2,3.7,0.2,3.7c-2,0.2-4.5,0.3-6.7,0.3c-2.1,0-4-0.1-5.4-0.3c-3.7-0.6-5.9-3.3-5.9-6.4
	c0-1.2,0.1-3.5,0.1-5.1c0-2.2-0.8-3.4-2.6-3.4c-2.5,0-6.3,1.4-9.3,4.3c-3,3-8.7,8.7-10.4,10.7c0,0-0.6-0.7-2.8-2.7
	c4.9-5,21.2-20.8,26.5-26c-3.8,0.4-15.5,1-21.5,1.3c-0.2,0.3-0.4,0.5-0.8,0.6l-0.3-4.1c7.2-0.2,20.9-0.9,26.1-1.3l0.8-0.5l3,2.7
	c-0.3,0.3-0.7,0.4-1.2,0.4C628,128.4,621.7,134.3,617.8,138L617.8,138L617.8,138z M630.8,117.3c-5.5-1.6-15.3-3.2-22.2-3.5l0.8-3.5
	c7.2,0.3,16.5,1.7,22.4,3.4L630.8,117.3z"/>
<path class="st0" d="M658.1,131.6c3.4-1.8,8.8-3,12.9-3c8.2,0,13.4,4.8,13.4,12.4c0,9.4-8.2,14.6-18.7,14.6
	c-6.7,0-11.3-2.7-11.3-7.3c0-3.8,3.8-6.9,8.5-6.9c5.9,0,9.8,4.7,10.6,9.4c4.1-1.6,7.2-4.9,7.2-9.7c0-5.6-4.1-9.2-10.7-9.2
	c-7.8,0-15.4,3.5-18.8,6.8c-1.5,1.5-3.6,3.6-5,5.2l-2.6-2.6c4.7-4.9,19.5-19,26.5-25.6c-3,0.4-13.4,0.8-19.3,1
	c-0.2,0.4-0.7,0.7-1.1,0.8l-0.4-4.4c7-0.1,20.4-0.6,24.1-1.1l0.8-0.4l2.7,3.4c-0.3,0.2-0.7,0.4-1.2,0.5
	C672,118.5,662.1,127.7,658.1,131.6L658.1,131.6L658.1,131.6z M665.2,152.4c1.6,0,3.4-0.2,4.7-0.5c-0.6-4-3.5-7.4-7.4-7.4
	c-2.7,0-5.1,1.4-5.1,3.8C657.5,151.5,661.8,152.4,665.2,152.4z"/>
<path class="st0" d="M13.7,127.2h-3.2v3.3h3.2V127.2z"/>
<path class="st0" d="M20.2,127.2H17v3.3h3.1V127.2z"/>
<path class="st0" d="M54.1,123.8h-3.2v3.3h3.2V123.8z"/>
<path class="st0" d="M60.6,123.8h-3.1v3.3h3.1V123.8z"/>
<path class="st0" d="M57.4,118.4h-3.2v3.3h3.2V118.4z"/>
<path class="st0" d="M103.6,152.9h-3.9v4.1h3.9V152.9z"/>
<path class="st0" d="M85.7,145.1l1.9-0.4c1.9-0.4,3.4-1.2,4.6-2.5c1.1-1.2,1.7-2.5,1.7-3.8c0-2.1-0.7-3.9-2-5.6
	c-1.3-1.6-2.7-2.4-4.1-2.4c-1.4,0-3.1,1.3-5,3.8c-2,2.6-3.4,6.2-4.1,10.6l0,0.2l-0.2,0c-0.9,0-1.7,0.1-2.2,0.1h-1
	c-2.6,0-3.9-2.1-3.9-6.1v-7h-3.8v7c0,4.1-1.4,6.1-4.1,6.1H63c-2.8,0-4.3-2.1-4.3-6.1v-3.8H55v3.9c0,2.2-0.3,3.7-0.8,4.6
	c-0.6,0.9-1.5,1.4-2.7,1.4c-1.3,0-2.2-0.5-2.7-1.5c-0.5-0.9-0.7-2.4-0.7-4.5v-4h-3.8v4.5c0,3.6-1.3,5.4-3.9,5.4h-3.5
	c-2.6,0-3.9-1.8-3.9-5.2c0-1,0-1.9-0.1-2.6H29c0.1,0.4,0.1,1,0.1,1.6c0,2.6-1.3,4.8-3.8,6.5c-2.5,1.6-5.7,2.5-9.5,2.5
	c-7.2,0-10.9-2.2-10.9-6.4c0-1.5,0.2-2.9,0.6-4.2L2,136.2c-0.6,1.5-0.9,3.2-0.9,5.1c0,3.4,1.3,6.1,3.8,8c2.5,1.9,6.2,2.9,10.9,2.9
	c6.8,0,11.6-2.1,14.4-6.4l0.2-0.3l0.2,0.3c1.2,2.5,3.3,3.7,6.4,3.7h3.4c2.5,0,4.4-0.8,5.7-2.3l0.2-0.2l0.2,0.2
	c1.1,1.5,2.8,2.3,5.1,2.3c0.7,0,1.6-0.2,2.7-0.6c1.1-0.4,1.9-1,2.4-1.6l0.2-0.2l0.2,0.2c1.2,1.5,3.3,2.3,6,2.3h0.4
	c2.5,0,4.4-0.8,5.8-2.3l0.2-0.2l0.2,0.2c1.3,1.5,3.3,2.3,5.9,2.3h0.9c0.4,0,1,0,1.7-0.1l0.2,0v0.2c0,3.5,1.1,6.8,3.2,9.7
	c2.1,2.9,4.2,4.3,6.2,4.3c1.7,0,3.1-0.6,4.1-1.9c1-1.2,1.6-2.9,1.6-5c0-1.2-0.6-2.5-1.7-3.9c-1.1-1.4-2.5-2.4-4.2-2.9l-1.4-0.4h11
	c2.7,0,4.7-0.8,6-2.2c1.3-1.5,1.9-4.1,1.9-7.7v-4.6h-3.8v4.5c0,3.6-1.3,5.4-3.9,5.4L85.7,145.1L85.7,145.1z M82.6,144.6
	c0.5-2.9,1.3-5.2,2.4-6.9c1.1-1.8,2.1-2.7,2.9-2.7c0.6,0,1.1,0.3,1.7,1.1c0.6,0.7,0.9,1.5,0.9,2.4c0,1.3-0.8,2.7-2.3,3.9
	c-1.5,1.3-3.3,2.1-5.3,2.5l-0.3,0.1L82.6,144.6z M87.7,152.7c1.4,1.5,2.2,2.9,2.2,4.2c0,1.5-0.8,2.3-2.3,2.3c-1.3,0-2.5-1-3.7-3.1
	c-1.2-2-1.8-4-1.8-6v-0.6l0.3,0.1C84.5,150.1,86.3,151.2,87.7,152.7z"/>
<path class="st0" d="M127.2,134.9c1.6,3.4,2.4,6.6,2.4,9.4c0,8.2-4.2,12.4-12.6,12.4c-1.1,0-2.4-0.1-3.8-0.4l-0.8,4.1
	c1.9,0.2,3.4,0.3,4.5,0.3c5.1,0,9.1-1.4,12-4.3c2.9-2.8,4.4-6.9,4.4-12.1c0-3.3-0.5-6.4-1.5-9.4H127.2z"/>
<path class="st0" d="M130.7,125.5h-3.9v4.1h3.9V125.5z"/>
<path class="st0" d="M141.4,112.6h-3.8v37.1h3.8V112.6z"/>
<path class="st0" d="M213.9,123.4c-3.5-2.9-8-4.4-13.3-4.4c-2.7,0-5.1,0.2-7.2,0.6l1.2,4.6c2.3-0.4,4.4-0.7,6-0.7c4.4,0,8,1,10.7,3
	c2.7,2,4.1,4.7,4.1,8c0,2.5-0.8,4.6-2.4,6.2c-1.6,1.6-3.8,2.4-6.6,2.5l-0.5,0l0.3-0.4c1.4-1.6,2.2-3.4,2.2-5.2
	c0-2.3-0.8-4.3-2.3-5.9c-1.5-1.6-3.5-2.4-5.9-2.4c-2.4,0-4.4,0.8-5.9,2.4c-1.5,1.6-2.3,3.5-2.3,5.7c0,2.5,1.1,4.7,3.4,6.5l0.4,0.3
	l-0.5,0.1c-2,0.4-4.3,0.6-6.8,0.6h-0.4c-0.5,0-1.3-0.2-2.5-0.7c-1.5-0.6-2.5-0.9-3.1-0.9c-1.5,0-2.7,0.5-3.7,1.5
	c-1,1-1.5,2.1-1.5,3.3c0,0.8,0.6,2.1,1.8,3.9c1,1.6,1.1,2.1,1.1,2.3c0,1.3-1.3,2.4-4.1,3.4c-2.6,1-6,1.4-10,1.4
	c-4.2,0-7.2-0.5-8.9-1.4c-1.8-0.9-2.7-2.4-2.7-4.4c0-1.4,0.2-3,0.7-4.8l-3.5-0.9c-0.7,2.2-1.1,4.1-1.1,5.8c0,3.3,1.4,5.9,4.1,7.6
	c2.8,1.8,6.5,2.7,11.3,2.7c5.1,0,9.4-1,12.8-2.9c3.4-1.9,5.1-3.9,5.1-5.9c0-0.4-0.3-1.4-1.7-3.4c-1.1-1.6-1.2-2.1-1.2-2.3
	c0-0.3,0.1-0.6,0.4-0.9c0.3-0.2,0.6-0.4,1.1-0.4c0.5,0,1.4,0.2,2.6,0.8c1.3,0.6,2.3,0.9,3,0.9h0.3c4.3,0,8.5-1,12.4-2.9l0.1,0l0.1,0
	c1.5,0.4,3.2,0.6,4.8,0.6c3.7,0,6.9-1.2,9.5-3.7c2.5-2.4,3.8-5.5,3.8-9.2C219.1,130,217.3,126.3,213.9,123.4z M200.9,142.7
	L200.9,142.7l-0.2,0c-3.3-1-4.9-2.7-4.9-5.1c0-1,0.4-1.8,1.2-2.5c0.8-0.7,1.8-1,3.2-1c1.2,0,2.3,0.4,3.1,1.1
	c0.8,0.7,1.3,1.6,1.3,2.7C204.5,139.7,203.3,141.3,200.9,142.7z"/>
<path class="st0" d="M227.1,112.6h-3.8v37.1h3.8V112.6z"/>
<path class="st0" d="M271,118.1h-3.9v4.1h3.9V118.1z"/>
<path class="st0" d="M263.5,127.5c-2.3-0.8-4.3-1.2-6-1.2c-1.3,0-2.6,0.2-3.7,0.6l0.7,4.5c1.3-0.3,2.5-0.5,3.5-0.5
	c4.4,0,8.1,1.8,14.8,5.4l0.6,0.3l-0.7,0.1c-1.6,0.1-2.9,1.5-7.8,4c-3.6,1.9-6.3,3.1-7.8,3.6c-1.5,0.5-2.8,0.8-3.8,0.8h-5.9l0-0.2
	c-0.1-4.4-1.1-8-2.9-10.7c-1.8-2.6-3.8-4-5.9-4c-2.1,0-3.9,0.9-5.5,2.8c-1.6,1.9-2.4,4.2-2.4,7c0,3,1,5.4,3,7.1
	c2,1.7,4.2,2.6,6.7,2.6h2.3l-0.1,0.3c-0.8,2.2-2.4,3.8-4.8,4.7c-2.4,1-5.9,1.4-10.5,1.4c-1.1,0-2.4-0.1-3.7-0.4l-0.8,4.6
	c1.9,0.2,3.4,0.3,4.5,0.3c5.4,0,9.8-0.9,13.2-2.8c3.3-1.8,5.5-4.5,6.5-8.1l0-0.2h6.3c1.2,0,2.6-0.3,4.2-0.8c1.6-0.5,4.4-1.9,8.2-4
	c4.1-2.2,7.1-3.7,8.9-4.3c1.8-0.6,3.3-0.9,4.7-0.9v-3.9c-0.2-0.1-0.9-0.4-5-2.9C269.3,130.1,265.7,128.3,263.5,127.5z M243.6,145.1
	h-3.5c-1.6,0-2.9-0.5-4-1.5c-1.1-1-1.6-2.2-1.6-3.7c0-1.4,0.4-2.7,1.2-3.7c0.8-1,1.8-1.5,2.9-1.5c1.4,0,2.6,1,3.6,3.1
	c1,2,1.4,4.4,1.4,7L243.6,145.1L243.6,145.1z"/>
<path class="st0" d="M300.9,131.3c-2,0-3.7,0.8-5,2.5c-1.4,1.7-2.6,4.5-3.6,8.5c-0.4,1.6-1.2,2.7-2.4,3.2c-1.6,0.7-2.8,1.5-3.4,2.6
	c-0.6,1.1-0.9,2.9-0.9,5.5v10h3.8v-9.3c0-0.8,0.1-1.6,0.1-2.2c0.1-0.6,0.3-1.2,0.5-1.6c0.3-0.4,0.8-0.8,1.5-1.1
	c1.3-0.5,2.2-1.1,2.7-1.7l0.1-0.2l0.2,0.2c1.4,1.3,3.1,2,5.1,2c2.5,0,4.6-0.8,6.3-2.4c1.7-1.6,2.5-3.9,2.5-6.9
	c0-2.5-0.7-4.6-2.2-6.4C304.8,132.2,303,131.3,300.9,131.3z M303.2,143.8c-0.9,0.9-2.1,1.3-3.4,1.3c-1.2,0-2.5-0.5-3.9-1.5l-0.1-0.1
	l0-0.1c1.2-5.1,2.9-7.6,5.1-7.6c1.1,0,1.9,0.4,2.6,1.3c0.7,0.9,1,2,1,3.2C304.6,141.8,304.1,142.9,303.2,143.8z"/>
<path class="st0" d="M342.2,149.7h-3.9v4.1h3.9V149.7z"/>
<path class="st0" d="M334.3,127.5c-2.3-0.8-4.3-1.2-6-1.2c-1.3,0-2.6,0.2-3.7,0.6l0.7,4.5c1.3-0.3,2.5-0.5,3.5-0.5
	c4.4,0,8.1,1.8,14.8,5.4l0.6,0.3l-0.7,0.1c-1.6,0.1-2.9,1.5-7.8,4c-3.6,1.9-6.3,3.1-7.8,3.6c-1.5,0.5-2.8,0.8-3.8,0.8h-3.9
	c-2.6,0-3.9-1.8-3.9-5.4v-27.1h-3.8v27.2c0,3.4,0.6,6,1.8,7.5c1.2,1.6,3.3,2.3,6.1,2.3h3.5c1.2,0,2.6-0.3,4.2-0.8
	c1.6-0.5,4.4-1.9,8.2-4c4.1-2.2,7.1-3.7,8.9-4.3c1.8-0.6,3.3-0.9,4.7-0.9v-3.9c-0.2-0.1-0.9-0.4-5-2.9
	C340.2,130.1,336.6,128.3,334.3,127.5z"/>
<path class="st0" d="M381.3,109.6h-3.9v4.1h3.9V109.6z"/>
<path class="st0" d="M386.4,124.9c-1.8-2.6-3.8-4-6-4c-1.9,0-3.6,0.9-5.2,2.7c-1.6,1.8-2.3,4-2.3,6.4c0,3,0.9,5.3,2.5,6.9
	c1.7,1.6,3.8,2.4,6.3,2.4c0.6,0,1.4-0.2,2.6-0.6l0.5-0.2l-0.2,0.5c-1.1,2.1-2.9,3.7-5.3,4.6c-2.4,0.9-5.8,1.4-10.1,1.4H369
	c-2.5,0-3.8-1.1-4-3.3c-0.1-1.3-0.4-2.7-0.7-4.2h-4.2c0.8,2.5,1.2,4.7,1.2,6.7c0,8.2-4.2,12.4-12.6,12.4c-1.1,0-2.4-0.1-3.8-0.4
	l-0.8,4.1c1.9,0.2,3.4,0.3,4.5,0.3c4.3,0,7.9-1.1,10.7-3.1c2.8-2.1,4.6-5.1,5.3-8.9l0.1-0.4l0.3,0.3c0.9,0.8,2.3,1.2,4.1,1.2h0.2
	c6.2,0,11.1-1.3,14.6-3.9c3.5-2.6,5.3-6.3,5.3-10.9C389.2,130.9,388.3,127.6,386.4,124.9z M385.3,134.1l-0.2,0
	c-1.3,0.4-2.5,0.6-3.6,0.6c-1.4,0-2.6-0.4-3.5-1.3c-0.9-0.9-1.4-2-1.4-3.4c0-1.3,0.4-2.4,1.1-3.3c0.7-0.9,1.6-1.3,2.7-1.3
	c1.3,0,2.4,0.9,3.4,2.7c1,1.8,1.5,3.7,1.5,5.8L385.3,134.1L385.3,134.1z"/>
<g>
	<g>
		<path class="st0" d="M1.5,85.3L27.6,6.6l9.4,0.1l26.6,79.1l-10-0.1l-7.5-23.9l-27.9-0.2l-7.4,23.9L1.5,85.3z M20.7,53.1l22.6,0.1
			l-6.7-21.9c-2.1-6.7-3.6-12.2-4.6-16.4C31.1,20,29.8,25,28.2,30L20.7,53.1z"/>
		<path class="st0" d="M69.1,107.7l0.5-79.1l7.5,0l0,7.4c1.9-3.1,3.9-5.3,6.1-6.6c2.2-1.3,4.8-2,7.7-2c3.8,0,7.2,1.1,10.2,3.4
			c3,2.2,5.5,5.6,7.3,10c1.8,4.5,2.7,9.9,2.7,16.1c-0.1,9.7-2.2,17.2-6.4,22.4c-4.2,5.2-9.1,7.8-14.7,7.8c-2.5,0-4.8-0.7-7-1.9
			c-2.2-1.3-4-3.1-5.6-5.4l-0.2,27.8L69.1,107.7z M76.8,57.6c0,7.4,1.2,12.8,3.7,16.4c2.5,3.5,5.5,5.3,9.1,5.3
			c3.4,0,6.5-1.8,9.1-5.4c2.6-3.6,4-9.2,4-16.8c0-7.5-1.2-13-3.7-16.6c-2.5-3.6-5.6-5.4-9.2-5.4c-3.3,0-6.2,1.9-8.9,5.7
			C78.2,44.6,76.9,50.2,76.8,57.6z"/>
		<path class="st0" d="M119.1,108l0.5-79.1l7.5,0l0,7.4c1.9-3.1,3.9-5.3,6.1-6.6c2.2-1.3,4.8-2,7.7-2c3.8,0,7.2,1.1,10.2,3.4
			c3,2.2,5.5,5.6,7.3,10c1.8,4.5,2.7,9.9,2.7,16.1c-0.1,9.7-2.2,17.2-6.4,22.4c-4.2,5.2-9.1,7.8-14.7,7.8c-2.5,0-4.8-0.7-7-1.9
			c-2.2-1.3-4-3.1-5.6-5.4l-0.2,27.8L119.1,108z M126.8,57.9c0,7.4,1.2,12.8,3.7,16.4c2.5,3.5,5.5,5.3,9.1,5.3
			c3.4,0,6.5-1.8,9.1-5.4c2.6-3.6,4-9.2,4-16.8c0-7.5-1.2-13-3.7-16.6c-2.5-3.6-5.6-5.4-9.2-5.4c-3.3,0-6.2,1.9-8.9,5.7
			C128.2,45,126.9,50.6,126.8,57.9z"/>
		<path class="st0" d="M202.4,68.3l8.4,1.3c-1.4,6.1-4,10.7-7.7,13.8c-3.7,3.1-8.2,4.6-13.6,4.6c-6.8,0-12.3-2.6-16.4-7.7
			c-4.2-5.1-6.2-12.4-6.2-21.9c0.1-9.9,2.2-17.4,6.5-22.5c4.3-5.2,9.7-7.7,16.2-7.7c6.2,0,11.4,2.6,15.5,7.7
			c4.1,5.1,6.1,12.5,6.1,22.2l-0.1,2.6l-35.8-0.2c0.3,6.4,1.8,11.3,4.5,14.6c2.7,3.3,6,4.9,9.9,5C195.7,79.9,200,76.1,202.4,68.3z
			 M175.8,52.4l26.8,0.2c-0.3-5-1.4-8.7-3.2-11.1c-2.6-3.6-5.9-5.4-9.9-5.4c-3.6,0-6.7,1.4-9.3,4.4
			C177.5,43.4,176.1,47.4,175.8,52.4z"/>
		<path class="st0" d="M250.7,79.9c-2.7,2.7-5.6,4.8-8.5,6.2c-2.9,1.4-6,2.1-9.2,2c-5,0-9-1.5-11.9-4.5c-3-3-4.4-6.9-4.4-11.9
			c0-3.3,0.7-6.2,2.1-8.8c1.4-2.5,3.3-4.5,5.8-5.9c2.4-1.4,6.1-2.5,11-3.1c6.6-0.9,11.5-2,14.6-3.3l0.1-2.5c0-3.9-0.7-6.7-2.1-8.3
			c-2-2.3-5.1-3.5-9.3-3.5c-3.8,0-6.6,0.7-8.5,2.2c-1.9,1.5-3.3,4.4-4.2,8.6l-8-1.3c1.2-6.1,3.5-10.6,7-13.4
			c3.5-2.8,8.5-4.1,14.9-4.1c5,0,9,1,11.8,2.8c2.9,1.9,4.6,4.2,5.4,6.9c0.7,2.7,1.1,6.7,1.1,12l-0.1,12.9c-0.1,9,0.1,14.7,0.4,17.1
			c0.3,2.4,1,4.6,2,6.9l-8.5-0.1C251.5,85,251,82.7,250.7,79.9z M250.2,58.3c-3,1.4-7.4,2.6-13.3,3.6c-3.4,0.6-5.8,1.2-7.2,1.9
			c-1.4,0.7-2.4,1.8-3.2,3.1c-0.8,1.3-1.2,2.9-1.2,4.6c0,2.7,0.8,4.9,2.5,6.6c1.7,1.6,4.1,2.5,7.1,2.5c2.9,0,5.5-0.7,7.9-2.2
			c2.4-1.5,4.2-3.4,5.4-5.9c1.2-2.4,1.8-6,1.8-10.7L250.2,58.3z"/>
		<path class="st0" d="M269,87.1l0.5-78.9l8.1,0.1l-0.5,78.9L269,87.1z"/>
		<path class="st0" d="M305.5,84.9l0.5-69.6l-21.8-0.1l0.1-9.3l52.5,0.3l-0.1,9.3l-21.9-0.1L314.3,85L305.5,84.9z"/>
		<path class="st0" d="M331.6,56.5c0.1-9.9,2.2-17.3,6.5-22.3c4.3-5,9.7-7.5,16.2-7.4c6.4,0,11.7,2.6,16,7.6
			c4.3,5.1,6.4,12.3,6.3,21.8c-0.1,10.3-2.2,17.9-6.5,22.9c-4.3,5-9.7,7.5-16.2,7.4c-6.4,0-11.8-2.6-16-7.7
			C333.6,73.8,331.5,66.3,331.6,56.5z M339.9,56.5c0,7.4,1.3,12.9,4,16.5c2.7,3.6,6.1,5.5,10.2,5.5c3.8,0,7.1-1.8,9.9-5.4
			c2.8-3.6,4.2-9.1,4.2-16.4c0-7.4-1.3-12.9-4-16.5c-2.7-3.6-6.1-5.5-10.2-5.5c-3.9,0-7.2,1.8-9.9,5.4
			C341.3,43.7,339.9,49.2,339.9,56.5z"/>
		<path class="st0" d="M388.9,85.7l0.5-78.9l8.8,0.1L398,39.3l34.4,0.2l0.2-32.4l8.8,0.1l-0.5,78.9l-8.8-0.1l0.2-37.2l-34.4-0.2
			l-0.2,37.2L388.9,85.7z"/>
		<path class="st0" d="M486.6,68l8.4,1.3c-1.4,6.1-4,10.7-7.7,13.8c-3.7,3.1-8.2,4.6-13.6,4.6c-6.8,0-12.3-2.6-16.4-7.7
			c-4.2-5.1-6.2-12.4-6.2-21.9c0.1-9.9,2.2-17.4,6.5-22.5c4.3-5.2,9.7-7.7,16.2-7.7c6.2,0,11.4,2.6,15.5,7.7
			c4.1,5.1,6.1,12.5,6.1,22.2l-0.1,2.6l-35.8-0.2c0.3,6.4,1.8,11.3,4.5,14.6c2.7,3.3,6,4.9,9.9,5C479.9,79.7,484.2,75.8,486.6,68z
			 M460,52.1l26.8,0.2c-0.3-5-1.4-8.7-3.2-11.1c-2.6-3.6-5.9-5.4-9.9-5.4c-3.6,0-6.7,1.4-9.3,4.4C461.7,43.1,460.3,47.1,460,52.1z"
			/>
		<path class="st0" d="M535,79.7c-2.7,2.7-5.6,4.8-8.5,6.2c-2.9,1.4-6,2.1-9.2,2c-5,0-9-1.5-11.9-4.5c-3-3-4.4-6.9-4.4-11.9
			c0-3.3,0.7-6.2,2.2-8.8c1.4-2.5,3.3-4.5,5.8-5.9c2.4-1.4,6.1-2.5,11-3.1c6.6-0.9,11.5-2,14.6-3.3l0.1-2.5c0-3.9-0.7-6.7-2.1-8.2
			c-2-2.3-5.1-3.5-9.3-3.5c-3.8,0-6.6,0.7-8.5,2.2c-1.9,1.5-3.3,4.4-4.2,8.6l-8-1.3c1.2-6.1,3.5-10.6,7-13.4
			c3.5-2.8,8.5-4.1,14.9-4.1c5,0,9,1,11.8,2.9c2.9,1.9,4.6,4.2,5.4,6.9c0.7,2.7,1.1,6.7,1.1,12l-0.1,12.9c-0.1,9,0.1,14.7,0.4,17.1
			c0.3,2.4,1,4.6,2,6.9l-8.5-0.1C535.7,84.7,535.2,82.4,535,79.7z M534.4,58c-3,1.4-7.4,2.6-13.3,3.6c-3.4,0.6-5.8,1.2-7.2,1.9
			c-1.4,0.7-2.4,1.8-3.2,3.1c-0.8,1.3-1.1,2.9-1.2,4.6c0,2.7,0.8,4.9,2.5,6.6c1.7,1.6,4.1,2.5,7.1,2.5c2.9,0,5.5-0.7,7.9-2.2
			c2.4-1.5,4.2-3.4,5.4-5.9c1.2-2.4,1.8-6,1.8-10.7L534.4,58z"/>
		<path class="st0" d="M565.3,86.9l-17.9-57.3l8.6,0.1L566.1,64c1.2,3.9,2.2,7.7,3,11.5c0.7-3,1.7-6.6,3.1-10.9l10.9-34.8l8.4,0.1
			l-18.6,57L565.3,86.9z"/>
		<path class="st0" d="M628.2,68.9l8.4,1.3c-1.4,6.1-4,10.7-7.7,13.8c-3.7,3.1-8.2,4.6-13.6,4.6c-6.8,0-12.3-2.6-16.4-7.7
			c-4.2-5.1-6.2-12.4-6.2-21.9c0.1-9.9,2.2-17.4,6.5-22.5c4.3-5.2,9.7-7.7,16.2-7.7c6.2,0,11.4,2.6,15.5,7.7
			c4.1,5.1,6.1,12.5,6.1,22.2l-0.1,2.6L601,61c0.3,6.4,1.8,11.3,4.5,14.6c2.7,3.3,6,4.9,9.9,5C621.5,80.6,625.8,76.7,628.2,68.9z
			 M601.6,53.1l26.8,0.2c-0.3-5-1.4-8.7-3.2-11.1c-2.6-3.6-5.9-5.4-9.9-5.4c-3.6,0-6.7,1.4-9.3,4.4C603.3,44.1,601.9,48,601.6,53.1z
			"/>
		<path class="st0" d="M645.2,87.4l0.4-57.2l7.3,0l-0.1,8.1c1.8-3.1,3.9-5.5,6.5-7c2.6-1.5,5.5-2.3,8.8-2.3c2.6,0,4.9,0.5,7.1,1.5
			c2.2,1,3.9,2.3,5.3,3.9c1.3,1.6,2.3,3.7,3,6.2c0.6,2.6,0.9,6.5,0.9,11.7l-0.2,35.1l-8.1-0.1l0.2-34.8c0-4.2-0.3-7.3-1-9.2
			c-0.7-1.9-1.9-3.5-3.4-4.5c-1.6-1.1-3.4-1.6-5.4-1.6c-3.9,0-7,1.4-9.3,4.2c-2.3,2.8-3.5,7.7-3.6,14.6l-0.2,31.3L645.2,87.4z"/>
	</g>
</g>
</svg>
