<?xml version="1.0" encoding="utf-8"?>
<!-- Generator: Adobe Illustrator 23.0.1, SVG Export Plug-In . SVG Version: 6.00 Build 0)  -->
<svg version="1.1" id="Layer_1" xmlns="http://www.w3.org/2000/svg" xmlns:xlink="http://www.w3.org/1999/xlink" x="0px" y="0px"
	 viewBox="0 0 307.5 29" style="enable-background:new 0 0 307.5 29;" xml:space="preserve">
<style type="text/css">
	.st0{fill:#6F49F6;}
</style>
<path class="st0" d="M19,11.5h8.5v-2h-9.1c0-0.4,0-0.8,0-1.3V4h9.7V2H7v2h9.4v4.1c0,0.4,0,0.8,0,1.3H7.7v2h8.4
	c-0.5,2.8-2.1,6.6-9.4,9.2l-0.3,0.1l0.3,0.2c0.3,0.3,0.8,0.9,0.9,1.3l0.1,0.2l0.2-0.1c5.4-1.9,8.7-4.8,9.9-8.8
	c1.9,4.6,5,7.5,9.6,8.8l0.2,0l0.1-0.1c0.3-0.4,0.7-1.1,1-1.4l0.3-0.3l-0.4-0.1C23.8,19.4,20.7,16.4,19,11.5z"/>
<path class="st0" d="M30.4,22h1.9v-1.1H48V22h2V1.5H30.4L30.4,22L30.4,22z M48,3.4v15.7H32.3V3.4H48z"/>
<path class="st0" d="M47,15.7h-2.2l1.3-0.8L46,14.7c-0.5-0.7-1.5-1.8-2.5-2.7l-0.1-0.1L42,12.7l0.2,0.2c0.9,0.8,1.9,2,2.4,2.7
	l0.1,0.1h-3.7v-3.9h4.9v-1.8h-4.9V6.8h5.5V5H33.8v1.8H39v3.3h-4.6v1.8H39v3.9h-5.6v1.8h13.5L47,15.7L47,15.7z"/>
<path class="st0" d="M61.2,6.5c2.4-0.1,7.1-0.3,10.1-0.7l0.2,0L71.3,4l-0.2,0c-3.1,0.5-7.2,0.7-9.9,0.7l-0.2,0L61,6.5L61.2,6.5z"/>
<path class="st0" d="M56.6,13c-0.1,0.3-0.3,0.7-0.5,1.2c-0.3,0.8-0.7,1.7-1,2.5C55,15.7,55,14.4,55,12.8c0-2.3,0.4-6.3,1.2-10.1
	c0.5,0,0.7-0.3,0.8-0.5L57,2l-2.8-0.5l0,0.2C53.4,5.8,53,10,53,12.9c0,3.3,0.3,5.9,1,8L54,21l2-0.4L56,20.4
	c-0.1-0.2-0.1-0.4-0.1-0.7c0-0.3,0.1-0.6,0.2-1c0.2-0.6,0.5-1.2,0.8-2.1c0.3-0.7,0.7-1.5,1.1-2.6l0-0.1l-1.3-1.3L56.6,13z"/>
<path class="st0" d="M68.8,17.5c-2.3,0-6.2,0-6.2-2.5c0-1.2,0.8-2.3,1.9-3.5l0.2-0.2l-1.9-0.8l-0.1,0.1c-1.3,1.6-2.2,3-2.2,4.6
	c0,2.1,1.6,3.6,4.4,4c1.1,0.2,2.7,0.3,4.4,0.3c0.9,0,1.7,0,2.6-0.1l0.2,0l0-2.1l-0.2,0C70.7,17.5,69.7,17.5,68.8,17.5z"/>
<path class="st0" d="M82.5,1H75v2h7.5V1z"/>
<path class="st0" d="M91.9,13.8v-3.6h3.5V8.3h-9.4V4.6c3.2-0.7,6.2-1.6,7.9-2.4c0.1,0,0.1,0,0.2,0c0.2,0,0.3,0,0.4-0.2L94.6,2
	l-1.8-1.5l-0.1,0.1c-1.4,0.7-3.9,1.6-7.2,2.4L84,2.4v8.1c0,3-0.2,6.5-1.9,9.2v-6.2h-7.6v8.2h1.8v-1.1h5.4l0,0.4l0.2-0.3
	c0.4,0.2,0.8,0.6,0.9,0.9L83,22l0.2-0.2c1.9-2.5,2.5-5.8,2.7-8.7l0.1,0c1.3,0.5,2.7,1.1,3.9,1.8V22h2v-6.1c1,0.6,1.8,1.1,2.4,1.5
	l0.2,0.1l0.1-0.2c0.1-0.1,0.2-0.3,0.7-1.1l0.3-0.5l-0.2-0.1C94.6,15.2,93.4,14.5,91.9,13.8z M80.3,15.3V19h-4v-3.7H80.3z M85.9,12.8
	c0-0.8,0.1-1.5,0.1-2.2v-0.5h4v2.7c-1.1-0.5-2.1-0.9-3-1.2l-0.2-0.1L85.9,12.8z"/>
<path class="st0" d="M83,4h-9.5v2H83V4z"/>
<path class="st0" d="M82.5,7.5h-8V9h8V7.5z"/>
<path class="st0" d="M82.5,10.5h-8V12h8V10.5z"/>
<path class="st0" d="M110.8,4.4l0.2,0.1l0.6-1.9l-0.2-0.1c-2.7-0.7-6.9-1.4-10.2-1.5L101,1l-0.4,1.9l0.3,0
	C103.9,3.1,108.3,3.7,110.8,4.4z"/>
<path class="st0" d="M116,19.4v-0.3l-0.2,0c-0.8,0.1-1.9,0.2-3,0.2c-2,0-3.2,0-3.2-2.2c0-0.3,0-0.6,0-0.9c0-0.3,0-0.7,0-1
	c0-1.6-0.9-2.6-2.3-2.6c-0.5,0-1,0.1-1.5,0.2c1.1-1,2.4-2.3,3.6-3.4c0.7-0.6,1.3-1.2,1.7-1.6c0.2,0,0.4-0.1,0.6-0.2l0.2-0.2L110.3,6
	l-0.4,0.3c-2.4,0.2-8.6,0.5-11.8,0.6l-0.2,0l0.2,2.3l0.2,0c0.2,0,0.4-0.1,0.5-0.3c2.6-0.1,7-0.4,9-0.6c-3.7,3.6-9.6,9.4-11.6,11.4
	L96,20l0.2,0.1c1,0.9,1.2,1.2,1.2,1.2l0.2,0.2l0.2-0.2c0.8-0.9,3.3-3.5,4.7-4.9c1.3-1.3,3-1.9,4.1-1.9c0.4,0,1,0.1,1,1.3
	c0,0.4,0,0.8,0,1.3c0,0.4,0,0.8,0,1c0,1.6,1.2,2.9,2.9,3.1c0.6,0.1,1.5,0.1,2.5,0.1c1.1,0,2.2-0.1,3.1-0.1l0.2,0l0-0.2
	C116.1,21.1,116,20.5,116,19.4z"/>
<path class="st0" d="M128.8,9.1c-1.5,0-3.4,0.4-4.9,0.9c2.2-2,5.6-5.2,7.1-6.4c0.2,0,0.5-0.1,0.6-0.2l0.2-0.1l-1.5-1.8l-0.5,0.2
	c-1.8,0.3-7.8,0.5-10.9,0.5l-0.2,0l0.2,2.4l0.2-0.1c0.2,0,0.4-0.2,0.6-0.3c2.4-0.1,6.2-0.2,8-0.4c-3.1,2.9-9.5,8.8-11.6,11l-0.1,0.1
	l1.5,1.5l0.1-0.2c0.6-0.6,1.5-1.6,2.2-2.3c1.5-1.5,4.9-3,8.4-3c2.9,0,4.6,1.5,4.6,3.9c0,1.8-1,3.3-2.9,4c-0.5-2.1-2.3-4.1-4.9-4.1
	c-2.2,0-4.1,1.5-4.1,3.3c0,2.1,2.1,3.4,5.4,3.4c5.2,0,8.7-2.7,8.7-6.7C135.1,11.4,132.6,9.1,128.8,9.1z M122.9,18.1
	c0-1,1.1-1.5,2.1-1.5c1.5,0,2.8,1.2,3.1,2.9c-0.6,0.1-1.3,0.2-1.9,0.2C123.2,19.7,122.9,18.4,122.9,18.1z"/>
<path class="st0" d="M147.1,9.5h-1.5v2h1.5V9.5z"/>
<path class="st0" d="M150.1,9.5h-2v2h2V9.5z"/>
<path class="st0" d="M164.7,8h-2v2h2V8z"/>
<path class="st0" d="M167.2,8h-1.5v2h1.5V8z"/>
<path class="st0" d="M165.7,6h-1.5v1.5h1.5V6z"/>
<path class="st0" d="M185.7,20.5h-2v2h2V20.5z"/>
<path class="st0" d="M184.3,15.1c0,1.4-0.5,2.1-1.5,2.1h-3.6c0.6-0.2,1.1-0.5,1.5-0.9c0.5-0.5,0.8-1.1,0.8-1.7
	c0-0.9-0.3-1.7-0.9-2.5c-0.6-0.7-1.2-1.1-1.9-1.1c-0.6,0-1.4,0.6-2.3,1.7c-0.9,1.1-1.5,2.6-1.8,4.5c-0.4,0-0.7,0-0.9,0h-0.4
	c-1,0-1.5-0.8-1.5-2.4v-3.2h-2v3.2c0,1.6-0.5,2.4-1.6,2.4h-0.2c-1.1,0-1.6-0.8-1.6-2.4v-1.8h-2v1.8c0,0.9-0.1,1.5-0.3,1.9
	c-0.2,0.4-0.5,0.5-1,0.5c-0.5,0-0.8-0.2-1-0.5c-0.2-0.4-0.3-1-0.3-1.8v-1.9h-2v2.1c0,1.4-0.5,2.1-1.5,2.1H157c-1,0-1.5-0.7-1.5-2.1
	c0-0.4,0-0.8-0.1-1.1l0-0.1h-2l0,0.2c0,0.2,0,0.4,0,0.6c0,1.1-0.5,1.9-1.5,2.6c-1,0.7-2.4,1-4,1c-3,0-4.5-0.9-4.5-2.6
	c0-0.6,0.1-1.2,0.3-1.7l0.1-0.2l-1.8-0.5l-0.1,0.1c-0.3,0.7-0.4,1.4-0.4,2.2c0,1.5,0.6,2.7,1.7,3.5c1.1,0.8,2.7,1.3,4.7,1.3
	c2.9,0,5-0.9,6.2-2.7c0.6,1,1.5,1.6,2.8,1.6h1.4c1.1,0,1.9-0.3,2.5-1c0.5,0.6,1.2,1,2.3,1c0.3,0,0.7-0.1,1.2-0.3
	c0.5-0.2,0.8-0.4,1.1-0.7c0.6,0.6,1.5,1,2.6,1h0.2c1.1,0,1.9-0.3,2.5-1c0.6,0.6,1.4,1,2.6,1h0.4c0.2,0,0.4,0,0.7,0
	c0,1.5,0.5,2.9,1.4,4.1c0.9,1.3,1.9,1.9,2.8,1.9c0.8,0,1.4-0.3,1.9-0.8c0.5-0.6,0.7-1.3,0.7-2.2c0-0.6-0.2-1.2-0.7-1.8
	c-0.4-0.5-0.9-0.9-1.5-1.1h3.7c1.2,0,2.1-0.3,2.7-1c0.6-0.7,0.9-1.8,0.9-3.4v-2.1h-2L184.3,15.1L184.3,15.1z M178.7,16.1
	c-0.6,0.5-1.3,0.8-2.1,1c0.2-1.1,0.5-2.1,1-2.8c0.6-0.9,0.9-1.1,1.1-1.1c0.2,0,0.4,0.1,0.6,0.4c0.2,0.3,0.3,0.6,0.3,0.9
	C179.6,15.1,179.3,15.6,178.7,16.1z M176.4,19.6L176.4,19.6c0.8,0.2,1.5,0.6,2.1,1.2c0.6,0.6,0.9,1.2,0.9,1.7c0,0.6-0.3,0.8-0.8,0.8
	c-0.5,0-0.9-0.4-1.4-1.2C176.7,21.2,176.4,20.4,176.4,19.6z"/>
<path class="st0" d="M197.5,13h-2.4l0.1,0.2c0.7,1.4,1,2.7,1,3.8c0,3.3-1.8,5-5.3,5c-0.5,0-1-0.1-1.6-0.2l-0.2,0l-0.4,2l0.2,0
	c0.8,0.1,1.5,0.1,2,0.1c2.2,0,4.1-0.6,5.4-1.8c1.3-1.2,2-2.9,2-5.1c0-1.4-0.2-2.7-0.7-3.9L197.5,13z"/>
<path class="st0" d="M197.2,9h-2v2h2V9z"/>
<path class="st0" d="M201.7,3.5h-2v16h2V3.5z"/>
<path class="st0" d="M232.5,7.9C231,6.6,229,6,226.7,6c-1.2,0-2.2,0.1-3.1,0.3l-0.2,0l0.6,2.3l0.2,0c1-0.2,1.8-0.3,2.5-0.3
	c1.8,0,3.3,0.4,4.5,1.3c1.1,0.8,1.7,1.9,1.7,3.3c0,1-0.3,1.9-1,2.5c-0.6,0.6-1.5,1-2.5,1c0.6-0.7,0.8-1.4,0.8-2.2c0-1-0.3-1.9-1-2.6
	c-0.7-0.7-1.6-1.1-2.6-1.1c-1.1,0-2,0.4-2.6,1.1c-0.7,0.7-1,1.6-1,2.6c0,1.1,0.5,2,1.4,2.8c-0.8,0.1-1.7,0.2-2.7,0.2h-0.2
	c-0.2,0-0.5-0.1-1-0.3c-0.7-0.3-1.1-0.4-1.4-0.4c-0.7,0-1.2,0.2-1.7,0.7c-0.5,0.4-0.7,1-0.7,1.5c0,0.4,0.3,0.9,0.8,1.8
	c0.4,0.6,0.5,0.8,0.5,0.9c0,0.5-0.5,0.9-1.6,1.3c-1.1,0.4-2.5,0.6-4.2,0.6c-1.8,0-3-0.2-3.7-0.6c-0.7-0.4-1.1-1-1.1-1.7
	c0-0.6,0.1-1.3,0.3-2l0-0.2l-1.8-0.5l0,0.2c-0.3,1-0.5,1.8-0.5,2.5c0,1.5,0.6,2.6,1.8,3.4c1.2,0.8,2.9,1.2,4.9,1.2
	c2.2,0,4.1-0.4,5.6-1.2c1.5-0.8,2.3-1.7,2.3-2.7c0-0.3-0.2-0.8-0.7-1.6c-0.4-0.6-0.5-0.8-0.5-0.9c0-0.1,0-0.2,0.1-0.3
	c0.1-0.1,0.2-0.1,0.3-0.1c0.2,0,0.5,0.1,1,0.3c0.6,0.3,1,0.4,1.3,0.4h0.1c1.9,0,3.6-0.4,5.3-1.2c0.7,0.2,1.4,0.2,2.1,0.2
	c1.6,0,3-0.5,4.2-1.6c1.1-1.1,1.7-2.4,1.7-4C234.8,10.8,234,9.2,232.5,7.9z M225.3,13.2c0.3-0.3,0.7-0.4,1.2-0.4
	c0.5,0,0.9,0.1,1.2,0.4c0.3,0.3,0.5,0.6,0.5,1c0,0.7-0.5,1.4-1.4,1.9c-1.3-0.4-2-1.1-2-2C224.9,13.8,225,13.4,225.3,13.2z"/>
<path class="st0" d="M237.8,3.5h-1.5v16h1.5V3.5z"/>
<path class="st0" d="M256.8,6h-2v2h2V6z"/>
<path class="st0" d="M258.1,11.9c-2.1-1.2-3.6-2-4.6-2.4c-1-0.3-1.9-0.5-2.6-0.5c-0.6,0-1.1,0.1-1.7,0.3l-0.1,0l0.4,2.2l0.2,0
	c0.6-0.1,1.1-0.2,1.5-0.2c1.8,0,3.4,0.8,6.1,2.2c-0.4,0.1-0.7,0.3-1.3,0.6c-0.5,0.3-1,0.6-1.9,1.1c-1.6,0.8-2.7,1.3-3.3,1.5
	c-0.6,0.2-1.2,0.3-1.6,0.3h-2.4c-0.1-1.9-0.5-3.4-1.3-4.6c-0.8-1.2-1.7-1.8-2.7-1.8c-0.9,0-1.8,0.4-2.5,1.3
	c-0.7,0.8-1.1,1.9-1.1,3.1c0,1.4,0.4,2.4,1.3,3.2c0.9,0.8,1.9,1.1,3,1.1h0.8c-0.3,0.8-1,1.4-1.9,1.8c-1,0.4-2.5,0.6-4.4,0.6
	c-0.5,0-1-0.1-1.6-0.2l-0.2,0l-0.4,2.3l0.2,0c0.8,0.1,1.5,0.1,2,0.1c2.3,0,4.3-0.4,5.7-1.2c1.5-0.8,2.4-2,2.8-3.5h2.5
	c0.5,0,1.1-0.1,1.9-0.4c0.7-0.2,1.9-0.8,3.5-1.7c1.7-1,3-1.6,3.8-1.8c0.7-0.2,1.4-0.4,1.9-0.4l0.2,0v-2l-0.1,0
	C260.1,13,259.4,12.7,258.1,11.9z M241.7,13.5c0.3-0.4,0.7-0.6,1.1-0.6c0.5,0,1,0.4,1.4,1.2c0.4,0.8,0.6,1.8,0.6,2.9h-1.3
	c-0.6,0-1.2-0.2-1.6-0.6c-0.4-0.4-0.6-0.9-0.6-1.4C241.2,14.4,241.4,13.9,241.7,13.5z"/>
<path class="st0" d="M269,11.5c-0.9,0-1.7,0.4-2.3,1.1c-0.6,0.7-1.1,2-1.6,3.7c-0.2,0.6-0.5,1.1-0.9,1.2c-0.7,0.3-1.2,0.7-1.5,1.2
	c-0.3,0.5-0.4,1.3-0.4,2.4v4.4h1.9v-4.1c0-0.3,0-0.7,0.1-0.9c0-0.2,0.1-0.5,0.2-0.6c0.1-0.2,0.3-0.3,0.5-0.4
	c0.5-0.2,0.9-0.5,1.2-0.7c0.6,0.6,1.4,0.8,2.2,0.8c1.1,0,2-0.4,2.8-1.1c0.7-0.7,1.1-1.7,1.1-3c0-1.1-0.3-2-1-2.8
	C270.8,11.9,270,11.5,269,11.5z M269.9,16.9c-0.3,0.3-0.8,0.5-1.3,0.5c-0.5,0-1-0.2-1.5-0.6c0.5-2,1.2-3,2-3c0.4,0,0.7,0.2,1,0.5
	c0.3,0.3,0.4,0.8,0.4,1.3C270.4,16.1,270.3,16.5,269.9,16.9z"/>
<path class="st0" d="M286.9,19h-2v2.5h2V19z"/>
<path class="st0" d="M290.2,15.3l0.2,0v-1.9l-0.1,0c-0.1,0-1.3-0.7-2.1-1.2c-2.1-1.2-3.7-2-4.6-2.3c-1-0.3-1.9-0.5-2.7-0.5
	c-0.6,0-1.1,0.1-1.7,0.2l-0.1,0l0.4,2.2l0.2,0c0.6-0.1,1.1-0.2,1.5-0.2c1.8,0,3.5,0.8,6.1,2.2c-0.4,0.1-0.7,0.3-1.3,0.6
	c-0.5,0.3-1,0.6-1.9,1c-1.6,0.8-2.7,1.3-3.3,1.5c-0.6,0.2-1.2,0.3-1.6,0.3h-1.7c-1,0-1.5-0.7-1.5-2.1V3.5h-2v11.7
	c0,1.5,0.3,2.6,0.8,3.3c0.6,0.7,1.5,1.1,2.8,1.1h1.5c0.5,0,1.2-0.1,1.9-0.4c0.7-0.2,1.9-0.8,3.6-1.7c1.8-0.9,3-1.5,3.8-1.8
	C289,15.5,289.7,15.4,290.2,15.3z"/>
<path class="st0" d="M303.4,2h-2v2h2V2z"/>
<path class="st0" d="M305.7,8.7C304.9,7.6,304,7,303,7c-0.9,0-1.6,0.4-2.3,1.2c-0.7,0.8-1,1.7-1,2.8c0,1.3,0.4,2.3,1.1,3
	c0.7,0.7,1.7,1,2.8,1c0.2,0,0.6-0.1,1-0.2c-0.5,0.8-1.2,1.4-2.1,1.7c-1,0.4-2.4,0.6-4.2,0.6h-0.1c-1,0-1.5-0.4-1.5-1.2
	c-0.1-0.5-0.2-1.1-0.3-1.8l0-0.1h-2.1l0.1,0.2c0.3,1,0.5,2,0.5,2.8c0,3.3-1.8,5-5.2,5c-0.5,0-1-0.1-1.6-0.2l-0.2,0l-0.4,2l0.2,0
	c0.8,0.1,1.5,0.1,1.9,0.1c1.9,0,3.4-0.5,4.7-1.4c1.2-0.9,2-2.1,2.3-3.7c0.4,0.3,1,0.5,1.8,0.5h0.1c2.7,0,4.8-0.6,6.3-1.7
	c1.5-1.1,2.3-2.7,2.3-4.7C306.9,11.3,306.5,9.9,305.7,8.7z M304.9,12.6c-0.5,0.2-1,0.2-1.4,0.2c-0.6,0-1-0.2-1.4-0.5
	c-0.3-0.3-0.5-0.8-0.5-1.3c0-0.5,0.1-0.9,0.4-1.3c0.3-0.3,0.6-0.5,1-0.5c0.5,0,0.9,0.4,1.3,1.1C304.7,11,304.9,11.8,304.9,12.6z"/>
</svg>
