<svg width="491" height="29" viewBox="0 0 491 29" fill="none" xmlns="http://www.w3.org/2000/svg">
<path d="M6.80612 0.494141L0 22.0337H2.46214L4.38045 15.5091H11.805L13.8576 22.0337H16.5303L9.30307 0.494141H6.80612ZM5.06355 13.1883L7.02663 6.86996C7.44279 5.50927 7.7661 4.13674 7.99325 2.75576C8.25687 3.90179 8.67303 5.39095 9.24007 7.22323L11.0755 13.1883H5.06355Z" fill="#6F49F6"/>
<path d="M26.3737 6.90449C25.5688 6.30499 24.6667 6.00439 23.6676 6.00439C22.9005 6.00439 22.2224 6.19121 21.6298 6.56483C21.0389 6.93846 20.5006 7.54984 20.015 8.39559V6.35764H18.0332V28.0448H20.1763V20.4127C20.5944 21.0428 21.0899 21.5302 21.6627 21.8749C22.2355 22.2197 22.8528 22.3912 23.5145 22.3912C25.0009 22.3912 26.2963 21.6711 27.3992 20.2293C28.502 18.7874 29.0534 16.7325 29.0534 14.0662C29.0534 12.3441 28.8082 10.87 28.3193 9.64383C27.8255 8.41767 27.1786 7.50569 26.3737 6.90449ZM25.8173 18.7144C25.1293 19.7079 24.3293 20.2055 23.419 20.2055C22.4693 20.2055 21.6594 19.7249 20.9911 18.7654C20.3228 17.8058 19.9887 16.313 19.9887 14.2853C19.9887 12.2677 20.3426 10.7307 21.0504 9.67101C21.7582 8.61297 22.5433 8.0848 23.4059 8.0848C24.3655 8.0848 25.1786 8.57731 25.8486 9.56062C26.5169 10.5456 26.851 12.0605 26.851 14.1069C26.8494 16.1857 26.5054 17.7209 25.8173 18.7144Z" fill="#6F49F6"/>
<path d="M39.7762 6.90449C38.9347 6.30499 37.9917 6.00439 36.9471 6.00439C36.1452 6.00439 35.4362 6.19121 34.8167 6.56483C34.1989 6.93846 33.6362 7.54984 33.1286 8.39559V6.35764H31.0566V28.0448H33.2972V20.4127C33.7343 21.0428 34.2523 21.5302 34.8511 21.8749C35.45 22.2197 36.0953 22.3912 36.7871 22.3912C38.341 22.3912 39.6953 21.6711 40.8483 20.2293C42.0013 18.7874 42.5778 16.7325 42.5778 14.0662C42.5778 12.3441 42.3214 10.87 41.8103 9.64383C41.294 8.41767 40.6177 7.50569 39.7762 6.90449ZM39.1946 18.7144C38.4753 19.7079 37.6389 20.2055 36.6873 20.2055C35.6944 20.2055 34.8477 19.7249 34.149 18.7654C33.4504 17.8058 33.101 16.313 33.101 14.2853C33.101 12.2677 33.471 10.7307 34.211 9.67101C34.9509 8.61297 35.7718 8.0848 36.6735 8.0848C37.6768 8.0848 38.5269 8.57731 39.2273 9.56062C39.9259 10.5456 40.2753 12.0605 40.2753 14.1069C40.2753 16.1857 39.9156 17.7209 39.1946 18.7144Z" fill="#6F49F6"/>
<path d="M49.6883 6.00439C47.9216 6.00439 46.4626 6.70046 45.3096 8.09093C44.1566 9.48305 43.5801 11.5015 43.5801 14.1495C43.5801 16.7012 44.1515 18.6532 45.2944 20.0054C46.4372 21.3577 47.9318 22.0338 49.7779 22.0338C51.2454 22.0338 52.4745 21.6168 53.4686 20.7845C54.461 19.9523 55.1474 18.7179 55.5277 17.08L53.2522 16.7477C52.603 18.8459 51.4499 19.8958 49.7948 19.8958C48.7365 19.8958 47.8388 19.4572 47.1 18.5817C46.3612 17.7062 45.947 16.4055 45.8574 14.6828H55.5869L55.6021 13.99C55.6021 11.4001 55.0375 9.42159 53.9098 8.05438C52.7822 6.68717 51.3756 6.00439 49.6883 6.00439ZM45.9909 12.5464C46.0602 11.1991 46.4457 10.1276 47.1439 9.33354C47.8421 8.53946 48.6858 8.14242 49.6731 8.14242C50.7703 8.14242 51.6731 8.6192 52.3832 9.57276C52.8718 10.2273 53.1659 11.2191 53.2657 12.5481H45.9909V12.5464Z" fill="#6F49F6"/>
<path d="M67.9214 15.2599V11.7949C67.9214 10.3896 67.8181 9.32157 67.6133 8.58903C67.4085 7.85816 66.9159 7.24356 66.1372 6.74856C65.3585 6.25356 64.2836 6.00439 62.9142 6.00439C61.1554 6.00439 59.8045 6.3798 58.86 7.13061C57.9154 7.88141 57.2891 9.08071 56.9793 10.7268L59.1528 11.0723C59.3932 9.94115 59.7673 9.16875 60.2768 8.75846C60.7864 8.34652 61.5566 8.1422 62.5858 8.1422C63.725 8.1422 64.5697 8.45116 65.1181 9.06576C65.5075 9.48934 65.7022 10.2252 65.7022 11.275L65.6869 11.9394C64.8473 12.2916 63.5286 12.5956 61.7292 12.8497C60.3902 13.0324 59.3915 13.3165 58.7313 13.7018C58.0711 14.0872 57.5515 14.6204 57.1723 15.3048C56.7931 15.9891 56.6035 16.7732 56.6035 17.6585C56.6035 18.9974 57.0081 20.0604 57.8172 20.8495C58.6264 21.6385 59.7114 22.0338 61.069 22.0338C61.929 22.0338 62.7567 21.8461 63.5574 21.4707C64.3564 21.0953 65.1266 20.5372 65.8664 19.7963C65.9358 20.5289 66.0864 21.1584 66.3166 21.6883H68.6256C68.3463 21.092 68.1584 20.4774 68.0636 19.8478C67.9688 19.2133 67.9214 17.6851 67.9214 15.2599ZM65.6886 14.9427C65.6886 16.2034 65.5295 17.1635 65.2096 17.823C64.8896 18.4824 64.4072 19.009 63.7639 19.4043C63.119 19.7997 62.4029 19.9957 61.6124 19.9957C60.783 19.9957 60.1329 19.7764 59.664 19.3379C59.1935 18.8993 58.9598 18.3146 58.9598 17.5838C58.9598 17.112 59.0614 16.6951 59.2679 16.3346C59.4728 15.9742 59.7605 15.6951 60.1296 15.4975C60.4986 15.2998 61.1486 15.1237 62.0779 14.9709C63.6759 14.7018 64.8812 14.3746 65.6903 13.9892V14.9427H65.6886Z" fill="#6F49F6"/>
<path d="M72.6336 0.494141H70.6299V22.0337H72.6336V0.494141Z" fill="#6F49F6"/>
<path d="M90.1654 0.494141H76.1396V3.03466H81.9683V22.0337H84.3084V3.03466H90.1654V0.494141Z" fill="#6F49F6"/>
<path d="M94.6749 6.00439C92.9361 6.00439 91.5001 6.67886 90.3653 8.02614C89.2305 9.37341 88.6631 11.3719 88.6631 14.0199C88.6631 16.658 89.2355 18.6532 90.3803 20.0054C91.5251 21.3577 92.9561 22.0338 94.6749 22.0338C96.4238 22.0338 97.8631 21.3593 98.9912 20.0121C100.121 18.6648 100.685 16.6131 100.685 13.8604C100.685 11.3187 100.111 9.37507 98.9613 8.02614C97.8132 6.6772 96.3855 6.00439 94.6749 6.00439ZM97.3639 18.4289C96.6318 19.4074 95.7548 19.8958 94.7348 19.8958C93.645 19.8958 92.7315 19.4107 91.9943 18.4422C91.2572 17.4737 90.8895 15.9968 90.8895 14.01C90.8895 12.043 91.2522 10.5745 91.9793 9.601C92.7065 8.62751 93.5851 8.14076 94.6167 8.14076C95.7066 8.14076 96.6201 8.62585 97.3572 9.59436C98.0944 10.5629 98.4621 12.0364 98.4621 14.0116C98.4621 15.9785 98.096 17.4504 97.3639 18.4289Z" fill="#6F49F6"/>
<path d="M116.353 9.33949H107.057V0.494141H104.692V22.0337H107.057V11.8817H116.353V22.0337H118.718V0.494141H116.353V9.33949Z" fill="#6F49F6"/>
<path d="M127.332 6.00439C125.565 6.00439 124.106 6.70046 122.952 8.09093C121.799 9.48305 121.223 11.5015 121.223 14.1495C121.223 16.7012 121.794 18.6532 122.937 20.0054C124.08 21.3577 125.575 22.0338 127.421 22.0338C128.889 22.0338 130.118 21.6168 131.113 20.7845C132.105 19.9523 132.792 18.7179 133.17 17.08L130.894 16.7477C130.245 18.8459 129.092 19.8958 127.437 19.8958C126.378 19.8958 125.48 19.4572 124.741 18.5817C124.002 17.7062 123.588 16.4055 123.499 14.6828H133.229L133.245 13.99C133.245 11.4001 132.68 9.42159 131.552 8.05438C130.426 6.68717 129.019 6.00439 127.332 6.00439ZM123.634 12.5464C123.703 11.1991 124.089 10.1276 124.787 9.33354C125.485 8.53946 126.329 8.14242 127.317 8.14242C128.414 8.14242 129.317 8.6192 130.027 9.57276C130.516 10.2273 130.81 11.2191 130.91 12.5481H123.634V12.5464Z" fill="#6F49F6"/>
<path d="M145.564 15.259V11.7943C145.564 10.3892 145.461 9.32123 145.256 8.58877C145.051 7.85797 144.558 7.24343 143.78 6.74848C143.001 6.25353 141.926 6.00439 140.557 6.00439C138.798 6.00439 137.447 6.37976 136.503 7.13049C135.558 7.88122 134.932 9.08039 134.622 10.7264L136.795 11.0735C137.036 9.9424 137.41 9.17008 137.919 8.75984C138.429 8.34793 139.199 8.14364 140.228 8.14364C141.368 8.14364 142.212 8.45257 142.761 9.06711C143.15 9.49064 143.345 10.2264 143.345 11.2761L143.33 11.9405C142.49 12.2926 141.171 12.5965 139.372 12.8507C138.033 13.0334 137.034 13.3174 136.374 13.7027C135.714 14.088 135.194 14.6212 134.815 15.3055C134.436 15.9898 134.246 16.7737 134.246 17.659C134.246 18.9977 134.651 20.0606 135.46 20.8496C136.269 21.6385 137.354 22.0338 138.712 22.0338C139.572 22.0338 140.399 21.8461 141.2 21.4708C141.999 21.0954 142.769 20.5373 143.509 19.7966C143.578 20.529 143.729 21.1585 143.959 21.6883H146.268C145.989 21.0921 145.801 20.4775 145.706 19.8481C145.611 19.2119 145.564 17.6839 145.564 15.259ZM143.33 14.9417C143.33 16.2024 143.17 17.1624 142.85 17.8217C142.531 18.4811 142.048 19.0076 141.405 19.4029C140.76 19.7982 140.044 19.9942 139.253 19.9942C138.424 19.9942 137.774 19.775 137.305 19.3365C136.834 18.898 136.601 18.3134 136.601 17.5826C136.601 17.1109 136.702 16.694 136.909 16.3336C137.114 15.9732 137.401 15.6941 137.77 15.4965C138.139 15.2988 138.789 15.1228 139.719 14.97C141.317 14.7009 142.522 14.3737 143.331 13.9884V14.9417H143.33Z" fill="#6F49F6"/>
<path d="M153.085 15.9798C152.734 17.1303 152.462 18.1142 152.272 18.9334C152.031 17.9006 151.749 16.8578 151.428 15.8048L148.613 6.50488H146.269L151.247 22.0334H153.312L158.291 6.50488H156.006L153.085 15.9798Z" fill="#6F49F6"/>
<path d="M164.399 6.00439C162.632 6.00439 161.173 6.70046 160.02 8.09093C158.867 9.48305 158.29 11.5015 158.29 14.1495C158.29 16.7012 158.862 18.6532 160.005 20.0054C161.148 21.3577 162.642 22.0338 164.489 22.0338C165.956 22.0338 167.186 21.6168 168.18 20.7845C169.172 19.9523 169.859 18.7179 170.238 17.08L167.962 16.7477C167.312 18.8459 166.159 19.8958 164.504 19.8958C163.445 19.8958 162.548 19.4572 161.809 18.5817C161.07 17.7062 160.656 16.4055 160.566 14.6828H170.297L170.312 13.99C170.312 11.4001 169.747 9.42159 168.62 8.05438C167.493 6.68717 166.087 6.00439 164.399 6.00439ZM160.701 12.5464C160.771 11.1991 161.156 10.1276 161.854 9.33354C162.553 8.53946 163.396 8.14242 164.384 8.14242C165.481 8.14242 166.384 8.6192 167.094 9.57276C167.583 10.2273 167.877 11.2191 167.977 12.5481H160.701V12.5464Z" fill="#6F49F6"/>
<path d="M181.762 7.47304C181.401 7.03499 180.925 6.68184 180.335 6.41018C179.745 6.14022 179.105 6.00439 178.411 6.00439C177.521 6.00439 176.731 6.21663 176.042 6.64279C175.353 7.06895 174.771 7.71243 174.296 8.57324V6.35755H172.316V22.0321H174.504V13.4631C174.504 11.5716 174.817 10.2371 175.442 9.45952C176.067 8.68191 176.906 8.2914 177.956 8.2914C178.512 8.2914 178.999 8.43741 179.421 8.72775C179.843 9.01808 180.152 9.42896 180.35 9.96208C180.549 10.4935 180.648 11.3356 180.648 12.4885V22.0338H182.836V12.3951C182.836 10.9485 182.747 9.87719 182.569 9.17768C182.394 8.47816 182.123 7.91108 181.762 7.47304Z" fill="#6F49F6"/>
<path d="M202.497 11.4942H210.999V9.44437H201.899C201.927 9.01915 201.927 8.60071 201.927 8.19412V4.04694H211.627V1.99707H190.455V4.04694H199.852V8.19581C199.852 8.60409 199.852 9.02423 199.822 9.44606H191.178V11.4959H199.601C199.078 14.2641 197.453 18.1148 190.175 20.7L189.849 20.8169L190.103 21.0558C190.412 21.3455 190.861 21.9859 191.009 22.3484L191.084 22.5347L191.272 22.4687C196.674 20.5509 199.933 17.6642 201.212 13.6559C203.102 18.2673 206.259 21.154 210.848 22.4721L211.005 22.5178L211.088 22.3755C211.346 21.9266 211.797 21.2676 212.127 20.9338L212.39 20.6678L212.028 20.5781C207.251 19.3956 204.13 16.4241 202.497 11.4942Z" fill="#6F49F6"/>
<path d="M213.894 22.0338H215.804V20.9163H231.45V22.0338H233.428V1.49609H213.893V22.0338H213.894ZM231.45 3.36405V19.0696H215.804V3.36405H231.45Z" fill="#6F49F6"/>
<path d="M230.423 15.7166H228.269L229.605 14.9127L229.478 14.727C228.985 14.0024 227.956 12.8945 226.976 12.0315L226.866 11.9353L225.457 12.7104L225.671 12.9097C226.539 13.717 227.556 14.8823 228.035 15.6187L228.097 15.7149H224.392V11.8137H229.324V10.0539H224.392V6.78758H229.906V5.00244H217.271V6.78758H222.507V10.0539H217.945V11.8153H222.507V15.7166H216.898V17.5254H230.417V15.7166H230.423Z" fill="#6F49F6"/>
<path d="M244.711 6.50082C247.121 6.44684 251.79 6.20533 254.782 5.76635L254.968 5.73936L254.795 4.00049L254.575 4.03316C251.453 4.50055 247.405 4.72644 244.655 4.78184L244.448 4.7861L244.506 6.50508L244.711 6.50082Z" fill="#6F49F6"/>
<path d="M240.071 12.9666C239.969 13.2255 239.799 13.6526 239.602 14.1506C239.288 14.9388 238.919 15.8689 238.629 16.6076C238.516 15.6924 238.458 14.4293 238.458 12.8363C238.458 10.5591 238.815 6.5668 239.611 2.71966C240.137 2.69657 240.323 2.43108 240.386 2.20022L240.445 1.9809L237.665 1.49609L237.629 1.69562C236.88 5.8231 236.434 10.0132 236.434 12.9056C236.434 16.2218 236.76 18.8256 237.435 20.8621L237.492 21.0319L239.483 20.6593L239.419 20.4383C239.346 20.1926 239.315 19.9914 239.315 19.7869C239.315 19.5049 239.373 19.162 239.487 18.7695C239.658 18.2055 239.951 17.5344 240.32 16.6851C240.616 16.0057 240.983 15.1582 241.394 14.1292L241.443 14.0055L240.19 12.6681L240.071 12.9666Z" fill="#6F49F6"/>
<path d="M252.254 17.5178C249.947 17.5178 246.087 17.5178 246.087 15.0426C246.087 13.7958 246.854 12.7469 248.007 11.555L248.216 11.3389L246.284 10.5127L246.184 10.6307C244.84 12.2033 243.947 13.588 243.947 15.2288C243.947 17.3632 245.58 18.8759 248.315 19.2732C249.44 19.4361 251.028 19.5292 252.673 19.5292C253.543 19.5292 254.41 19.506 255.244 19.4594L255.438 19.4494L255.468 17.3881L255.241 17.4048C254.179 17.4779 253.145 17.5178 252.254 17.5178Z" fill="#6F49F6"/>
<path d="M265.987 0.995117H258.474V2.99879H265.987V0.995117Z" fill="#6F49F6"/>
<path d="M275.357 13.7566V10.1274H278.849V8.27417H269.415V4.61376C272.636 3.8978 275.573 3.02384 277.319 2.26181C277.38 2.27333 277.432 2.27333 277.485 2.27333C277.668 2.27333 277.806 2.22395 277.909 2.12191L278.07 1.96226L276.286 0.494141L276.163 0.55833C274.777 1.28251 272.229 2.1252 268.985 2.93003L267.476 2.44944V10.585C267.476 13.62 267.243 17.0434 265.603 19.7393V13.5393H257.974V21.7588H259.777V20.6824H265.185L265.187 21.0774L265.388 20.796C265.752 21.028 266.166 21.4428 266.326 21.7061L266.487 21.9711L266.671 21.7226C268.554 19.1879 269.163 15.8979 269.346 13.0702L269.457 13.113C270.733 13.6101 272.126 14.2339 273.394 14.8791V22.0337H275.359V15.9341C276.36 16.5134 277.164 17.0335 277.754 17.4812L277.912 17.6013L278.04 17.4499C278.155 17.3149 278.231 17.1866 278.731 16.3521L279.012 15.8863L278.856 15.7761C278.028 15.1951 276.822 14.4972 275.357 13.7566ZM263.774 15.256V18.9658H259.774V15.256H263.774ZM269.361 12.8053C269.404 12.0333 269.417 11.3009 269.417 10.6311V10.1274H273.394V12.8069C272.296 12.3148 271.289 11.8951 270.393 11.561L270.238 11.5034L269.361 12.8053Z" fill="#6F49F6"/>
<path d="M266.489 4.00049H256.972V6.00416H266.489V4.00049Z" fill="#6F49F6"/>
<path d="M265.988 7.50684H257.974V9.00959H265.988V7.50684Z" fill="#6F49F6"/>
<path d="M265.988 10.5127H257.974V12.0155H265.988V10.5127Z" fill="#6F49F6"/>
<path d="M294.277 4.44441L294.481 4.50155L295.042 2.56387L294.841 2.50837C292.171 1.76072 287.979 1.14203 284.645 1.00165L284.467 0.995117L284.021 2.92137L284.273 2.9328C287.327 3.06502 291.722 3.72942 294.277 4.44441Z" fill="#6F49F6"/>
<path d="M299.455 19.4494V19.1981L299.209 19.2388C298.426 19.3696 297.298 19.4494 296.193 19.4494C294.187 19.4494 292.978 19.4494 292.978 17.2521C292.978 16.9805 292.995 16.6714 293.012 16.3437C293.03 16.0058 293.049 15.6577 293.049 15.3385C293.049 13.7712 292.135 12.7167 290.773 12.7167C290.264 12.7167 289.783 12.7795 289.319 12.9086C290.402 11.8762 291.723 10.6434 292.916 9.5312C293.573 8.91652 294.176 8.35447 294.644 7.91298C294.879 7.88581 295.073 7.83148 295.25 7.68375L295.436 7.52753L293.781 6.00439L293.336 6.27268C290.929 6.48494 284.78 6.78888 281.571 6.88228L281.35 6.88907L281.523 9.22386L281.743 9.19669C281.942 9.17122 282.102 9.08123 282.213 8.9318C284.817 8.79256 289.186 8.53955 291.236 8.37485C287.579 11.9492 281.63 17.7785 279.666 19.7975L279.513 19.9554L279.675 20.1031C280.648 20.9929 280.916 21.3257 280.918 21.3291L281.076 21.5329L281.243 21.3342C282.019 20.4139 284.509 17.8804 285.946 16.4592C287.29 15.1534 288.99 14.5574 289.999 14.5574C290.423 14.5574 290.984 14.6966 290.984 15.9039C290.984 16.2792 290.971 16.7478 290.959 17.2012C290.949 17.5918 290.939 17.9619 290.939 18.2217C290.966 19.8247 292.113 21.0744 293.793 21.3342C294.395 21.4276 295.272 21.4785 296.265 21.4785C297.353 21.4785 298.443 21.4276 299.337 21.3359L299.549 21.3138L299.526 21.0999C299.522 21.0965 299.455 20.4852 299.455 19.4494Z" fill="#6F49F6"/>
<path d="M312.286 9.10807C310.77 9.10807 308.917 9.46274 307.427 10.013C309.585 7.99934 313.064 4.82561 314.51 3.65721C314.738 3.62407 314.966 3.53292 315.12 3.41359L315.287 3.28266L313.803 1.49609L313.331 1.7132C311.569 1.96677 305.535 2.1905 302.449 2.2137L302.22 2.21536L302.453 4.63999L302.691 4.58199C302.882 4.53558 303.118 4.41294 303.253 4.23893C305.617 4.15606 309.44 4.0069 311.261 3.8478C308.117 6.74311 301.769 12.6928 299.693 14.8208L299.55 14.9666L301.054 16.4433L301.202 16.2759C301.773 15.6312 302.703 14.6401 303.444 13.959C304.99 12.4873 308.362 10.9974 311.82 10.9974C314.674 10.9974 316.446 12.4823 316.446 14.8705C316.446 16.6852 315.405 18.1404 313.577 18.8961C313.12 16.8211 311.32 14.8009 308.628 14.8009C306.389 14.8009 304.568 16.2792 304.568 18.0973C304.568 20.1838 306.669 21.5329 309.921 21.5329C315.103 21.5329 318.585 18.8464 318.585 14.8473C318.578 11.3603 316.109 9.10807 312.286 9.10807ZM306.416 18.0757C306.416 17.0913 307.467 16.5775 308.505 16.5775C309.999 16.5775 311.275 17.7874 311.599 19.4828C311.017 19.5971 310.309 19.6667 309.704 19.6667C306.654 19.6667 306.416 18.4486 306.416 18.0757Z" fill="#6F49F6"/>
<path d="M330.606 9.51074H329.104V11.5144H330.606V9.51074Z" fill="#6F49F6"/>
<path d="M333.612 9.51074H331.608V11.5144H333.612V9.51074Z" fill="#6F49F6"/>
<path d="M348.138 8.00781H346.135V10.0115H348.138V8.00781Z" fill="#6F49F6"/>
<path d="M350.643 8.00781H349.141V10.0115H350.643V8.00781Z" fill="#6F49F6"/>
<path d="M349.14 6.00439H347.638V7.50715H349.14V6.00439Z" fill="#6F49F6"/>
<path d="M369.178 20.5308H367.174V22.5344H369.178V20.5308Z" fill="#6F49F6"/>
<path d="M367.731 15.1243C367.731 16.5687 367.243 17.2708 366.241 17.2708H362.652C363.248 17.064 363.749 16.7471 364.146 16.3252C364.658 15.7798 364.918 15.1927 364.918 14.5823C364.918 13.6683 364.624 12.8378 364.041 12.1139C363.455 11.3834 362.825 11.0132 362.171 11.0132C361.526 11.0132 360.782 11.5686 359.901 12.7127C359.047 13.8201 358.447 15.3462 358.12 17.2508C357.754 17.2641 357.455 17.2708 357.231 17.2708H356.807C355.798 17.2708 355.307 16.4736 355.307 14.8308V11.6753H353.355V14.8308C353.355 16.4719 352.844 17.2708 351.793 17.2708H351.628C350.522 17.2708 349.982 16.4736 349.982 14.8308V13.0579H348.03V14.8742C348.03 15.7698 347.926 16.3819 347.714 16.7471C347.509 17.099 347.18 17.2708 346.707 17.2708C346.221 17.2708 345.892 17.0957 345.701 16.7338C345.504 16.3619 345.404 15.7514 345.404 14.9175V13.0579H343.452V15.1243C343.452 16.5687 342.96 17.2708 341.952 17.2708H340.47C339.461 17.2708 338.97 16.597 338.97 15.2127C338.97 14.7941 338.952 14.4122 338.917 14.0786L338.902 13.9302H336.946L336.976 14.1237C337.004 14.2988 337.018 14.5156 337.018 14.7674C337.018 15.8315 336.501 16.7088 335.483 17.3776C334.454 18.0514 333.116 18.3933 331.511 18.3933C328.549 18.3933 327.049 17.5327 327.049 15.8332C327.049 15.2211 327.138 14.644 327.313 14.1203L327.37 13.9519L325.529 13.4682L325.476 13.6083C325.225 14.2638 325.097 15.0193 325.097 15.8548C325.097 17.3759 325.661 18.5684 326.774 19.4023C327.879 20.2329 329.473 20.6531 331.511 20.6531C334.402 20.6531 336.488 19.7542 337.716 17.9813C338.28 19.0304 339.209 19.5424 340.552 19.5424H341.992C343.069 19.5424 343.909 19.2205 344.492 18.5851C344.983 19.2205 345.741 19.5424 346.745 19.5424C347.051 19.5424 347.454 19.449 347.941 19.2655C348.399 19.0937 348.751 18.8652 348.994 18.5834C349.561 19.2205 350.445 19.5424 351.623 19.5424H351.788C352.849 19.5424 353.699 19.2172 354.313 18.5784C354.898 19.2188 355.762 19.5424 356.884 19.5424H357.288C357.459 19.5424 357.684 19.5307 357.96 19.5057C357.976 21 358.442 22.386 359.346 23.6252C360.273 24.8961 361.2 25.5398 362.105 25.5398C362.877 25.5398 363.51 25.2546 363.986 24.6909C364.459 24.1322 364.698 23.3767 364.698 22.4494C364.698 21.8907 364.449 21.2936 363.956 20.6732C363.555 20.1678 363.062 19.7892 362.486 19.5424H366.144C367.335 19.5424 368.232 19.2038 368.81 18.5367C369.386 17.8729 369.678 16.7388 369.678 15.1677V13.0579H367.726V15.1243H367.731ZM362.206 16.1284C361.623 16.622 360.921 16.9623 360.119 17.1407C360.32 15.9999 360.644 15.0643 361.085 14.3588C361.641 13.4699 361.982 13.2831 362.171 13.2831C362.356 13.2831 362.555 13.4098 362.777 13.67C362.999 13.9319 363.111 14.2371 363.111 14.579C363.113 15.0993 362.807 15.6197 362.206 16.1284ZM359.917 19.5757V19.5207C360.749 19.7542 361.457 20.1761 362.025 20.7749C362.61 21.392 362.905 21.9557 362.905 22.4494C362.905 22.9998 362.645 23.2666 362.11 23.2666C361.638 23.2666 361.165 22.863 360.667 22.0308C360.169 21.1968 359.917 20.3713 359.917 19.5757Z" fill="#6F49F6"/>
<path d="M380.99 13.0171H378.582L378.693 13.2482C379.364 14.6477 379.704 15.9349 379.704 17.0724C379.704 20.371 377.913 22.0438 374.38 22.0438C373.905 22.0438 373.362 21.9918 372.77 21.8909L372.604 21.8632L372.183 23.8795L372.367 23.899C373.209 23.9901 373.88 24.0373 374.36 24.0373C376.607 24.0373 378.411 23.4254 379.723 22.2163C381.034 21.0072 381.7 19.2758 381.7 17.0707C381.7 15.6892 381.475 14.3629 381.029 13.1245L380.99 13.0171Z" fill="#6F49F6"/>
<path d="M380.698 9.00977H378.694V11.0134H380.698V9.00977Z" fill="#6F49F6"/>
<path d="M385.207 3.49951H383.203V19.5289H385.207V3.49951Z" fill="#6F49F6"/>
<path d="M415.968 7.91898C414.446 6.64819 412.497 6.00439 410.178 6.00439C409.016 6.00439 407.971 6.09517 407.072 6.27166L406.896 6.30696L407.505 8.59136L407.658 8.56278C408.649 8.37788 409.498 8.28374 410.176 8.28374C412.02 8.28374 413.52 8.7107 414.637 9.55285C415.747 10.39 416.31 11.5027 416.31 12.8609C416.31 13.888 415.987 14.7385 415.35 15.3857C414.746 16.0009 413.898 16.3472 412.828 16.4178C413.391 15.7337 413.677 14.9924 413.677 14.209C413.677 13.1618 413.332 12.2709 412.654 11.5616C411.974 10.8505 411.092 10.4908 410.03 10.4908C408.962 10.4908 408.075 10.8573 407.395 11.5784C406.717 12.2995 406.372 13.1618 406.372 14.1418C406.372 15.2311 406.841 16.1825 407.768 16.9708C406.948 17.1103 406.039 17.1826 405.066 17.1826H404.9C404.714 17.1826 404.386 17.0834 403.899 16.8801C403.247 16.6178 402.79 16.4918 402.502 16.4918C401.836 16.4918 401.26 16.717 400.789 17.1591C400.319 17.6029 400.081 18.1239 400.081 18.7055C400.081 19.0686 400.335 19.6418 400.861 20.4571C401.258 21.0807 401.317 21.2841 401.317 21.3497C401.317 21.8102 400.767 22.2439 399.684 22.6389C398.575 23.044 397.156 23.2491 395.463 23.2491C393.704 23.2491 392.449 23.0541 391.729 22.6709C391.025 22.296 390.669 21.7144 390.669 20.9446C390.669 20.3562 390.771 19.6839 390.973 18.9476L391.019 18.7846L389.225 18.2971L389.177 18.45C388.869 19.4115 388.713 20.2587 388.713 20.9664C388.713 22.4423 389.331 23.587 390.55 24.3703C391.757 25.1469 393.403 25.5402 395.444 25.5402C397.634 25.5402 399.503 25.1217 400.998 24.2963C402.509 23.4626 403.274 22.5633 403.274 21.6253C403.274 21.3295 403.033 20.8168 402.534 20.057C402.104 19.4166 402.038 19.2115 402.038 19.146C402.038 19.0518 402.08 18.9695 402.164 18.8955C402.249 18.8199 402.363 18.7829 402.504 18.7829C402.706 18.7829 403.053 18.8871 403.534 19.0955C404.121 19.3477 404.575 19.4737 404.881 19.4737H405.027C406.877 19.4737 408.676 19.0585 410.372 18.2382C411.037 18.403 411.73 18.487 412.43 18.487C414.069 18.487 415.466 17.9407 416.583 16.8649C417.701 15.7874 418.267 14.4259 418.267 12.8172C418.269 10.8404 417.495 9.19313 415.968 7.91898ZM408.795 13.1837C409.098 12.9164 409.515 12.7802 410.032 12.7802C410.518 12.7802 410.925 12.9198 411.244 13.1954C411.561 13.4678 411.722 13.8073 411.722 14.2074C411.722 14.9487 411.241 15.6009 410.293 16.1438C408.999 15.7236 408.341 15.0512 408.341 14.1418C408.343 13.772 408.495 13.4493 408.795 13.1837Z" fill="#6F49F6"/>
<path d="M421.272 3.49951H419.77V19.5289H421.272V3.49951Z" fill="#6F49F6"/>
<path d="M440.307 6.00439H438.304V8.00807H440.307V6.00439Z" fill="#6F49F6"/>
<path d="M441.592 11.8692C439.522 10.6368 437.974 9.84426 436.992 9.5118C436.004 9.17767 435.12 9.00977 434.359 9.00977C433.785 9.00977 433.229 9.0954 432.705 9.26162L432.568 9.30528L432.936 11.53L433.11 11.4897C433.668 11.3604 434.161 11.295 434.579 11.295C436.409 11.295 438.014 12.0875 440.631 13.4929C440.27 13.5785 439.911 13.7934 439.34 14.1359C438.877 14.4147 438.301 14.7605 437.468 15.1954C435.917 16.0014 434.806 16.5152 434.164 16.725C433.526 16.9332 432.989 17.039 432.568 17.039H430.216C430.152 15.1383 429.722 13.5919 428.94 12.4418C428.141 11.2681 427.246 10.672 426.28 10.672C425.345 10.672 424.511 11.0935 423.797 11.9263C423.087 12.7557 422.728 13.7934 422.728 15.0107C422.728 16.364 423.173 17.4353 424.051 18.1909C424.926 18.9448 425.928 19.3259 427.031 19.3259H427.798C427.474 20.1554 426.826 20.7699 425.869 21.1527C424.862 21.5557 423.366 21.7605 421.42 21.7605C420.952 21.7605 420.425 21.7051 419.85 21.5943L419.683 21.5624L419.27 23.8745L419.448 23.8946C420.275 23.9886 420.932 24.0373 421.398 24.0373C423.739 24.0373 425.666 23.6344 427.128 22.8385C428.581 22.0493 429.534 20.8673 429.961 19.3242H432.506C433.024 19.3242 433.649 19.205 434.363 18.9699C435.071 18.7365 436.263 18.1623 437.903 17.2657C439.643 16.3153 440.919 15.7075 441.701 15.459C442.44 15.224 443.096 15.098 443.65 15.0846L443.815 15.0812V13.1151L443.697 13.0781C443.6 13.0479 442.911 12.6516 441.592 11.8692ZM425.188 13.5483C425.508 13.152 425.876 12.9522 426.279 12.9522C426.801 12.9522 427.263 13.3652 427.652 14.1796C428.042 14.9939 428.245 15.956 428.253 17.0407H426.923C426.294 17.0407 425.758 16.8426 425.335 16.453C424.912 16.0652 424.699 15.5799 424.699 15.0124C424.701 14.4415 424.864 13.9479 425.188 13.5483Z" fill="#6F49F6"/>
<path d="M452.502 11.5142C451.598 11.5142 450.837 11.8868 450.241 12.6222C449.65 13.3477 449.125 14.5789 448.679 16.2826C448.515 16.9215 448.203 17.3391 447.757 17.5238C447.024 17.8183 446.512 18.2176 446.234 18.7084C445.957 19.1959 445.817 20.0078 445.817 21.1225V25.5399H447.755V21.437C447.755 21.0893 447.775 20.7848 447.817 20.5319C447.857 20.2856 447.926 20.081 448.022 19.9229C448.115 19.7715 448.298 19.6384 448.563 19.5303C449.1 19.3107 449.494 19.0678 449.733 18.8065C450.357 19.3622 451.098 19.6434 451.938 19.6434C453.042 19.6434 453.977 19.2874 454.718 18.5869C455.459 17.8848 455.836 16.8599 455.836 15.5405C455.836 14.4491 455.514 13.4974 454.879 12.7088C454.239 11.9168 453.44 11.5142 452.502 11.5142ZM453.382 16.8732C453.037 17.2093 452.586 17.379 452.041 17.379C451.572 17.379 451.068 17.186 450.541 16.8033C451.035 14.7902 451.694 13.7703 452.502 13.7703C452.895 13.7703 453.228 13.9383 453.493 14.2677C453.762 14.6038 453.898 15.0314 453.898 15.5405C453.898 16.0896 453.725 16.5388 453.382 16.8732Z" fill="#6F49F6"/>
<path d="M470.363 19.0283H468.359V21.5329H470.363V19.0283Z" fill="#6F49F6"/>
<path d="M473.703 15.339L473.869 15.3356V13.3867L473.751 13.3502C473.623 13.312 472.476 12.6497 471.625 12.155C469.534 10.9365 467.971 10.153 466.98 9.82429C465.983 9.49394 465.09 9.32793 464.322 9.32793C463.742 9.32793 463.181 9.4126 462.652 9.57694L462.513 9.6201L462.884 11.8197L463.06 11.7798C463.623 11.652 464.122 11.5873 464.544 11.5873C466.39 11.5873 468.012 12.3708 470.655 13.7603C470.291 13.8449 469.929 14.0574 469.353 14.3961C468.885 14.6716 468.304 15.0136 467.463 15.4435C465.896 16.2404 464.774 16.7483 464.127 16.9558C463.482 17.1617 462.94 17.2663 462.514 17.2663H460.833C459.816 17.2663 459.321 16.5674 459.321 15.1298V3.49951H457.339V15.1763C457.339 16.667 457.619 17.7759 458.17 18.4715C458.726 19.1737 459.653 19.5289 460.926 19.5289H462.45C462.974 19.5289 463.604 19.4111 464.325 19.1786C465.042 18.9479 466.244 18.3802 467.9 17.4937C469.657 16.5541 470.947 15.9515 471.735 15.7058C472.481 15.4751 473.144 15.3506 473.703 15.339Z" fill="#6F49F6"/>
<path d="M486.893 1.99707H484.89V4.00075H486.893V1.99707Z" fill="#6F49F6"/>
<path d="M489.205 8.74378C488.404 7.59121 487.493 7.00586 486.498 7.00586C485.645 7.00586 484.861 7.40489 484.17 8.19305C483.483 8.97792 483.132 9.92437 483.132 11.0077C483.132 12.3152 483.513 13.3293 484.264 14.0268C485.013 14.7226 485.958 15.0755 487.067 15.0755C487.293 15.0755 487.626 15.0095 488.06 14.8792C487.6 15.6592 486.904 16.2346 485.991 16.5891C485.006 16.9717 483.579 17.1646 481.749 17.1646H481.665C480.709 17.1646 480.205 16.7573 480.125 15.918C480.071 15.3723 479.97 14.7704 479.819 14.129L479.789 14.0004H477.64L477.71 14.2164C478.045 15.2469 478.216 16.1769 478.216 16.9799C478.216 20.3222 476.465 22.0172 473.012 22.0172C472.547 22.0172 472.017 21.9645 471.438 21.8622L471.276 21.8342L470.864 23.8772L471.045 23.8969C471.867 23.9893 472.523 24.0371 472.992 24.0371C474.843 24.0371 476.408 23.582 477.647 22.6834C478.857 21.8045 479.633 20.5481 479.955 18.9454C480.357 19.2488 480.949 19.4054 481.72 19.4087H481.789C484.466 19.4021 486.588 18.8349 488.099 17.7219C489.626 16.5974 490.4 15.0112 490.4 13.0094C490.402 11.3226 490 9.88645 489.205 8.74378ZM488.411 12.5988C487.883 12.7505 487.398 12.828 486.964 12.828C486.413 12.828 485.956 12.6615 485.607 12.3317C485.258 12.0036 485.081 11.5584 485.081 11.0077C485.081 10.4965 485.22 10.0711 485.494 9.74135C485.764 9.41652 486.101 9.25163 486.497 9.25163C486.976 9.25163 487.416 9.60779 487.808 10.3102C488.201 11.0143 488.402 11.7827 488.411 12.5988Z" fill="#6F49F6"/>
</svg>
