<svg width="16" height="103" viewBox="0 0 16 103" fill="none" xmlns="http://www.w3.org/2000/svg">
<path d="M1 0.257813L15.3164 0.257813L15.3164 1.84961L4.07618 8.02148L15.3164 8.02148L15.3164 9.50586L1 9.50586L1 7.91406L12.25 1.75195L1 1.75195L1 0.257813ZM1 12.1719L15.3164 12.1719L15.3164 20.6582L13.627 20.6582L13.627 13.7246L9.24219 13.7246L9.24219 20.2188L7.5625 20.2188L7.5625 13.7246L2.68946 13.7246L2.68946 20.9316L1.00001 20.9316L1 12.1719ZM1.00001 21.8887L8.46094 26.4297L15.3164 22.4258L15.3164 24.2715L11.6445 26.4102C10.8893 26.8464 10.3034 27.1589 9.88672 27.3477C10.3945 27.6016 10.9382 27.9108 11.5176 28.2754L15.3164 30.6484L15.3164 32.3281L8.56836 28.207L1.00001 32.6504L1.00001 30.7363L6.10743 27.7773C6.39389 27.6146 6.7129 27.4453 7.06446 27.2695C6.54362 27.0026 6.18555 26.8138 5.99024 26.7031L1.00001 23.7539L1.00001 21.8887ZM1.00001 37.0254L13.627 37.0254L13.627 33.1582L15.3164 33.1582L15.3164 42.4648L13.627 42.4648L13.627 38.5781L1.00001 38.5781L1.00001 37.0254ZM5.59961 47.7871L5.75586 49.252C4.9681 49.3301 4.35287 49.5059 3.91016 49.7793C3.47396 50.0592 3.1224 50.4564 2.85547 50.9707C2.58855 51.485 2.45508 52.0645 2.45508 52.709C2.45508 53.6335 2.67969 54.3496 3.12891 54.8574C3.58464 55.3717 4.17383 55.6289 4.89649 55.6289C5.31967 55.6289 5.68751 55.5345 6.00001 55.3457C6.31902 55.1634 6.57943 54.8835 6.78126 54.5059C6.98308 54.1348 7.26628 53.3275 7.63086 52.084C7.95639 50.9772 8.28516 50.1895 8.61719 49.7207C8.94922 49.252 9.36915 48.8874 9.87696 48.627C10.3913 48.3665 10.9707 48.2363 11.6152 48.2363C12.7741 48.2363 13.7214 48.6107 14.457 49.3594C15.1927 50.1081 15.5606 51.1172 15.5606 52.3867C15.5606 53.2591 15.388 54.0208 15.043 54.6719C14.6979 55.3294 14.2031 55.8372 13.5586 56.1953C12.9141 56.5599 12.1556 56.7552 11.2832 56.7813L11.1465 55.2871C12.0775 55.209 12.7676 54.929 13.2168 54.4473C13.666 53.972 13.8906 53.3014 13.8906 52.4355C13.8906 51.5566 13.6921 50.8861 13.2949 50.4238C12.9043 49.9616 12.3965 49.7305 11.7715 49.7305C11.1921 49.7305 10.7428 49.8997 10.4238 50.2383C10.1048 50.5768 9.78256 51.3385 9.45704 52.5234C9.13803 53.6823 8.86133 54.4961 8.62696 54.9648C8.26238 55.681 7.7806 56.2214 7.18165 56.5859C6.5892 56.9505 5.87956 57.1328 5.05274 57.1328C4.23243 57.1328 3.48373 56.9408 2.80665 56.5566C2.13607 56.1725 1.62501 55.6484 1.27344 54.9844C0.92188 54.3268 0.746099 53.5326 0.746099 52.6016C0.746099 51.1497 1.1823 49.9909 2.05469 49.125C2.92709 48.2656 4.10873 47.8197 5.59961 47.7871ZM1.00001 62.2598L13.627 62.2598L13.627 58.3926L15.3164 58.3926L15.3164 67.6992L13.627 67.6992L13.627 63.8125L1.00001 63.8125L1.00001 62.2598ZM7.97266 68.5391C10.4141 68.5391 12.2891 69.0762 13.5977 70.1504C14.9128 71.2246 15.5703 72.5625 15.5703 74.1641C15.5703 75.1992 15.2773 76.1432 14.6914 76.9961C14.1055 77.849 13.2526 78.5228 12.1328 79.0176C11.0195 79.5189 9.69141 79.7695 8.14844 79.7695C6.02605 79.7695 4.29753 79.2878 2.9629 78.3242C1.49154 77.263 0.755865 75.873 0.755865 74.1543C0.755865 72.4225 1.51107 71.0293 3.02149 69.9746C4.38868 69.0176 6.03907 68.5391 7.97266 68.5391ZM7.94336 70.1406C6.17904 70.1406 4.8086 70.528 3.83204 71.3027C2.86198 72.084 2.37696 73.0313 2.37696 74.1445C2.37696 75.2839 2.8685 76.2376 3.85157 77.0059C4.83464 77.7806 6.27995 78.168 8.18751 78.168C9.41797 78.168 10.5182 77.9694 11.4883 77.5723C12.2305 77.2663 12.8229 76.804 13.2656 76.1855C13.7148 75.5736 13.9395 74.903 13.9395 74.1738C13.9395 73.002 13.4512 72.0352 12.4746 71.2734C11.4981 70.5182 9.98764 70.1406 7.94336 70.1406ZM1.00001 81.7422L15.3164 81.7422L15.3164 86.9473C15.3164 88.0345 15.1829 88.8353 14.916 89.3496C14.6491 89.8704 14.2031 90.2969 13.5781 90.6289C12.9596 90.9609 12.2402 91.127 11.4199 91.127C10.3392 91.127 9.46355 90.8438 8.79297 90.2773C8.1224 89.7174 7.69597 88.9004 7.51368 87.8262C7.25326 88.2624 6.98959 88.5944 6.72266 88.8223C6.17579 89.2845 5.56706 89.6914 4.89649 90.043L1.00001 92.0938L1.00001 90.1406L3.97852 88.5781C5.14389 87.9727 5.92839 87.5137 6.33204 87.2012C6.73568 86.8952 7.00587 86.5957 7.14258 86.3027C7.28581 86.0163 7.35743 85.6126 7.35743 85.0918L7.35743 83.2949L1.00001 83.2949L1.00001 81.7422ZM8.99805 83.2949L8.99805 86.6348C8.99805 87.3639 9.08594 87.9173 9.26172 88.2949C9.43751 88.6725 9.7142 88.972 10.0918 89.1934C10.4694 89.4147 10.9089 89.5254 11.4102 89.5254C12.1328 89.5254 12.6992 89.3138 13.1094 88.8906C13.526 88.4674 13.7344 87.8392 13.7344 87.0059L13.7344 83.2949L8.99805 83.2949ZM1.00001 96.5957L7.06446 96.5957L15.3164 92.0742L15.3164 93.9688L11 96.2734C10.1471 96.7292 9.33985 97.1296 8.57813 97.4746C9.32683 97.8197 10.1699 98.2461 11.1074 98.7539L15.3164 101.029L15.3164 102.836L7.06446 98.1484L1.00001 98.1484L1.00001 96.5957Z" fill="#6F49F6"/>
</svg>
