<svg width="16" height="145" viewBox="0 0 16 145" fill="none" xmlns="http://www.w3.org/2000/svg">
<path d="M15 144.357L0.683577 144.357L0.683577 139.934C0.683577 138.892 0.774723 138.124 0.957014 137.629C1.20441 136.952 1.66339 136.411 2.33397 136.008C3.00454 135.604 3.82811 135.402 4.80467 135.402C6.09373 135.402 7.14517 135.731 7.95897 136.389C8.77277 137.046 9.17967 138.182 9.17967 139.797L9.17967 142.805L15 142.805L15 144.357ZM7.49022 142.805L7.49022 139.768C7.49022 138.811 7.27537 138.111 6.84569 137.668C6.40949 137.225 5.75519 137.004 4.8828 137.004C4.31639 137.004 3.83136 137.115 3.42772 137.336C3.02407 137.551 2.74738 137.814 2.59764 138.127C2.4479 138.433 2.37303 138.99 2.37303 139.797L2.37303 142.805L7.49022 142.805ZM15 133.43L0.683577 133.43L0.683576 128.225C0.683576 127.137 0.81704 126.337 1.08397 125.822C1.35089 125.301 1.79686 124.875 2.42186 124.543C3.04035 124.211 3.75975 124.045 4.58006 124.045C5.66079 124.045 6.53644 124.328 7.20701 124.895C7.87759 125.454 8.30402 126.271 8.48631 127.346C8.74673 126.91 9.0104 126.577 9.27733 126.35C9.8242 125.887 10.4329 125.48 11.1035 125.129L15 123.078L15 125.031L12.0215 126.594C10.8561 127.199 10.0716 127.658 9.66795 127.971C9.26431 128.277 8.99412 128.576 8.8574 128.869C8.71418 129.156 8.64256 129.559 8.64256 130.08L8.64256 131.877L15 131.877L15 133.43ZM7.00194 131.877L7.00194 128.537C7.00194 127.808 6.91405 127.255 6.73826 126.877C6.56248 126.499 6.28579 126.2 5.90819 125.979C5.53058 125.757 5.09113 125.646 4.58983 125.646C3.86717 125.646 3.30076 125.858 2.89061 126.281C2.47394 126.704 2.26561 127.333 2.26561 128.166L2.26561 131.877L7.00194 131.877ZM15 121.555L0.683576 121.555L0.683576 113.068L2.37303 113.068L2.37303 120.002L6.75779 120.002L6.75779 113.508L8.43748 113.508L8.43748 120.002L13.3105 120.002L13.3105 112.795L15 112.795L15 121.555ZM15 107.287L0.683576 111.838L0.683576 110.158L11.084 107.102C11.8913 106.867 12.6725 106.662 13.4277 106.486C12.64 106.304 11.8587 106.096 11.084 105.861L0.683575 102.687L0.683575 101.105L15 105.695L15 107.287ZM15 99.416L0.683575 99.416L0.683575 97.8633L15 97.8633L15 99.416ZM8.02733 95.5781C5.58592 95.5781 3.71092 95.041 2.40232 93.9668C1.08722 92.8926 0.429669 91.5547 0.429669 89.9531C0.429669 88.918 0.722637 87.974 1.30857 87.1211C1.89451 86.2682 2.74738 85.5944 3.86717 85.0996C4.98045 84.5983 6.30857 84.3477 7.85154 84.3477C9.97394 84.3477 11.7025 84.8294 13.0371 85.793C14.5084 86.8542 15.2441 88.2441 15.2441 89.9629C15.2441 91.6947 14.4889 93.0879 12.9785 94.1426C11.6113 95.0996 9.96092 95.5781 8.02733 95.5781ZM8.05662 93.9766C9.82094 93.9766 11.1914 93.5892 12.1679 92.8145C13.138 92.0332 13.623 91.0859 13.623 89.9727C13.623 88.8333 13.1315 87.8796 12.1484 87.1113C11.1653 86.3366 9.72003 85.9492 7.81248 85.9492C6.58201 85.9492 5.48175 86.1478 4.5117 86.5449C3.76951 86.8509 3.17706 87.3132 2.73436 87.9316C2.28514 88.5436 2.06053 89.2142 2.06053 89.9434C2.06053 91.1152 2.54881 92.082 3.52537 92.8437C4.50193 93.599 6.01235 93.9766 8.05662 93.9766ZM0.683574 74.6992L0.683574 73.1367L8.95506 73.1367C10.3418 73.1367 11.4811 73.2734 12.373 73.5469C13.2584 73.8138 13.9583 74.3053 14.4726 75.0215C14.987 75.7311 15.2441 76.6361 15.2441 77.7363C15.2441 79.2858 14.7819 80.4479 13.8574 81.2227C12.9329 81.9909 11.2988 82.375 8.95506 82.375L0.683574 82.375L0.683574 80.8223L8.94529 80.8223C10.2409 80.8223 11.1784 80.7214 11.7578 80.5195C12.3372 80.3177 12.7799 79.9889 13.0859 79.5332C13.3854 79.071 13.5351 78.5111 13.5351 77.8535C13.5351 76.7467 13.2226 75.946 12.5976 75.4512C11.9726 74.9499 10.7552 74.6992 8.94529 74.6992L0.683574 74.6992ZM10.4004 71.0566L10.2441 69.5918C11.0319 69.5137 11.6471 69.3379 12.0898 69.0645C12.526 68.7845 12.8776 68.3874 13.1445 67.873C13.4114 67.3587 13.5449 66.7793 13.5449 66.1348C13.5449 65.2103 13.3203 64.4941 12.8711 63.9863C12.4153 63.472 11.8262 63.2148 11.1035 63.2148C10.6803 63.2148 10.3125 63.3092 9.99998 63.498C9.68097 63.6803 9.42055 63.9603 9.21873 64.3379C9.01691 64.709 8.7337 65.5163 8.36912 66.7598C8.0436 67.8665 7.71482 68.6543 7.38279 69.123C7.05076 69.5918 6.63084 69.9564 6.12303 70.2168C5.6087 70.4772 5.02928 70.6074 4.38475 70.6074C3.22589 70.6074 2.27863 70.2331 1.54295 69.4844C0.807272 68.7357 0.439433 67.7266 0.439433 66.457C0.439433 65.5846 0.611959 64.8229 0.957011 64.1719C1.30206 63.5143 1.79685 63.0065 2.44139 62.6484C3.08592 62.2839 3.84438 62.0885 4.71678 62.0625L4.8535 63.5566C3.92251 63.6348 3.2324 63.9147 2.78318 64.3965C2.33396 64.8717 2.10936 65.5423 2.10936 66.4082C2.10936 67.2871 2.30792 67.9577 2.70506 68.4199C3.09568 68.8822 3.6035 69.1133 4.2285 69.1133C4.80792 69.1133 5.25714 68.944 5.57615 68.6055C5.89516 68.2669 6.21743 67.5052 6.54295 66.3203C6.86196 65.1615 7.13865 64.3477 7.37303 63.8789C7.73761 63.1628 8.21938 62.6224 8.81834 62.2578C9.41079 61.8932 10.1204 61.7109 10.9472 61.7109C11.7676 61.7109 12.5163 61.903 13.1933 62.2871C13.8639 62.6712 14.375 63.1953 14.7265 63.8594C15.0781 64.5169 15.2539 65.3112 15.2539 66.2422C15.2539 67.694 14.8177 68.8529 13.9453 69.7187C13.0729 70.5781 11.8913 71.0241 10.4004 71.0566ZM10.4004 55.5488L10.2441 54.084C11.0319 54.0059 11.6471 53.8301 12.0898 53.5566C12.526 53.2767 12.8776 52.8796 13.1445 52.3652C13.4114 51.8509 13.5449 51.2715 13.5449 50.627C13.5449 49.7025 13.3203 48.9863 12.8711 48.4785C12.4153 47.9642 11.8262 47.707 11.1035 47.707C10.6803 47.707 10.3125 47.8014 9.99998 47.9902C9.68097 48.1725 9.42055 48.4525 9.21873 48.8301C9.01691 49.2012 8.7337 50.0085 8.36912 51.252C8.0436 52.3587 7.71482 53.1465 7.38279 53.6152C7.05076 54.084 6.63084 54.4486 6.12303 54.709C5.6087 54.9694 5.02928 55.0996 4.38475 55.0996C3.22589 55.0996 2.27863 54.7253 1.54295 53.9766C0.807271 53.2279 0.439433 52.2187 0.439432 50.9492C0.439432 50.0768 0.611958 49.3151 0.957011 48.6641C1.30206 48.0065 1.79685 47.4987 2.44139 47.1406C3.08592 46.776 3.84438 46.5807 4.71678 46.5547L4.85349 48.0488C3.92251 48.127 3.2324 48.4069 2.78318 48.8887C2.33396 49.3639 2.10935 50.0345 2.10935 50.9004C2.10935 51.7793 2.30792 52.4499 2.70506 52.9121C3.09568 53.3743 3.6035 53.6055 4.2285 53.6055C4.80792 53.6055 5.25714 53.4362 5.57615 53.0977C5.89516 52.7591 6.21743 51.9974 6.54295 50.8125C6.86196 49.6536 7.13865 48.8398 7.37303 48.3711C7.73761 47.6549 8.21938 47.1146 8.81834 46.75C9.41079 46.3854 10.1204 46.2031 10.9472 46.2031C11.7676 46.2031 12.5163 46.3952 13.1933 46.7793C13.8639 47.1634 14.375 47.6875 14.7265 48.3516C15.0781 49.0091 15.2539 49.8034 15.2539 50.7344C15.2539 52.1862 14.8177 53.3451 13.9453 54.2109C13.0729 55.0703 11.8913 55.5163 10.4004 55.5488ZM15 41.0762L2.37303 41.0762L2.37303 44.9434L0.683573 44.9434L0.683572 35.6367L2.37303 35.6367L2.37303 39.5234L15 39.5234L15 41.0762ZM8.02732 34.7969C5.58592 34.7969 3.71092 34.2598 2.40232 33.1855C1.08722 32.1113 0.429666 30.7734 0.429666 29.1719C0.429666 28.1367 0.722635 27.1927 1.30857 26.3398C1.89451 25.487 2.74737 24.8132 3.86717 24.3184C4.98045 23.8171 6.30857 23.5664 7.85154 23.5664C9.97394 23.5664 11.7025 24.0482 13.0371 25.0117C14.5084 26.0729 15.2441 27.4629 15.2441 29.1816C15.2441 30.9134 14.4889 32.3066 12.9785 33.3613C11.6113 34.3184 9.96092 34.7969 8.02732 34.7969ZM8.05662 33.1953C9.82094 33.1953 11.1914 32.8079 12.1679 32.0332C13.138 31.252 13.623 30.3047 13.623 29.1914C13.623 28.0521 13.1315 27.0983 12.1484 26.3301C11.1653 25.5553 9.72003 25.168 7.81248 25.168C6.58201 25.168 5.48175 25.3665 4.5117 25.7637C3.76951 26.0697 3.17706 26.5319 2.73435 27.1504C2.28513 27.7624 2.06053 28.4329 2.06053 29.1621C2.06053 30.334 2.54881 31.3008 3.52537 32.0625C4.50193 32.8177 6.01235 33.1953 8.05662 33.1953ZM15 21.5937L0.683572 21.5937L0.683572 16.3887C0.683572 15.3014 0.817035 14.5007 1.08396 13.9863C1.35089 13.4655 1.79685 13.0391 2.42185 12.707C3.04034 12.375 3.75974 12.209 4.58006 12.209C5.66078 12.209 6.53644 12.4922 7.20701 13.0586C7.87758 13.6185 8.30401 14.4355 8.48631 15.5098C8.74672 15.0736 9.01039 14.7415 9.27732 14.5137C9.8242 14.0514 10.4329 13.6445 11.1035 13.293L15 11.2422L15 13.1953L12.0215 14.7578C10.8561 15.3633 10.0716 15.8223 9.66795 16.1348C9.2643 16.4408 8.99412 16.7402 8.8574 17.0332C8.71417 17.3197 8.64256 17.7233 8.64256 18.2441L8.64256 20.041L15 20.041L15 21.5937ZM7.00193 20.041L7.00193 16.7012C7.00193 15.972 6.91404 15.4186 6.73826 15.041C6.56248 14.6634 6.28579 14.3639 5.90818 14.1426C5.53058 13.9212 5.09112 13.8105 4.58982 13.8105C3.86717 13.8105 3.30076 14.0221 2.8906 14.4453C2.47394 14.8685 2.2656 15.4967 2.2656 16.3301L2.2656 20.041L7.00193 20.041ZM15 6.74023L8.93552 6.74023L0.683571 11.2617L0.683571 9.36719L4.99998 7.0625C5.85284 6.60677 6.66013 6.20638 7.42185 5.86133C6.67315 5.51628 5.83006 5.08984 4.89256 4.58203L0.683571 2.30664L0.683571 0.5L8.93552 5.1875L15 5.1875L15 6.74023Z" fill="#6F49F6"/>
</svg>
